<?xml version="1.0" encoding="utf-8"?>
<!-- Generator: Adobe Illustrator 25.2.0, SVG Export Plug-In . SVG Version: 6.00 Build 0)  -->
<svg version="1.1" id="Capa_1" xmlns="http://www.w3.org/2000/svg" xmlns:xlink="http://www.w3.org/1999/xlink" x="0px" y="0px"
	 viewBox="0 0 57.92 69.09" style="enable-background:new 0 0 57.92 69.09;" xml:space="preserve">
<style type="text/css">
	.st0{fill:#C756E2;}
	.st1{fill:#FFFFFF;}
</style>
<path class="st1" d="M40.31,40.13c-0.28-0.28-0.63-0.49-1.01-0.61l-10.98-3.33c-0.23-0.07-0.47-0.1-0.7-0.1
	c-0.62,0-1.23,0.24-1.69,0.69c-0.63,0.62-0.88,1.53-0.64,2.38L28.4,50.4c0.11,0.4,0.33,0.77,0.62,1.06l15.25,15.28
	c1.51,1.51,3.52,2.34,5.65,2.34c2.14,0,4.15-0.83,5.66-2.34c3.12-3.12,3.12-8.19,0-11.31L40.31,40.13z M43.48,59.1L32.89,48.5
	l-1.77-6.41l6.25,1.95l10.57,10.59L43.48,59.1z M52.16,63.33C52.16,63.33,52.16,63.33,52.16,63.33c-0.6,0.6-1.39,0.92-2.23,0.92
	c0,0,0,0,0,0c-0.84,0-1.64-0.33-2.23-0.92l-0.8-0.8l4.47-4.47l0.8,0.8C53.39,60.09,53.39,62.09,52.16,63.33z M51.76,22.75H2.75
	C1.23,22.75,0,21.52,0,20c0-1.52,1.23-2.75,2.75-2.75h49.01c1.52,0,2.75,1.23,2.75,2.75C54.51,21.52,53.28,22.75,51.76,22.75z
	 M38.9,5.49H2.75C1.23,5.49,0,4.27,0,2.75S1.23,0,2.75,0H38.9c1.52,0,2.75,1.23,2.75,2.75S40.41,5.49,38.9,5.49z M16.59,41.04H2.75
	C1.23,41.04,0,39.81,0,38.29s1.23-2.75,2.75-2.75h13.84c1.52,0,2.75,1.23,2.75,2.75S18.11,41.04,16.59,41.04z"/>
</svg>
