<?xml version="1.0" encoding="utf-8"?>
<!-- Generator: Adobe Illustrator 25.2.0, SVG Export Plug-In . SVG Version: 6.00 Build 0)  -->
<svg version="1.1" id="Capa_1" xmlns="http://www.w3.org/2000/svg" xmlns:xlink="http://www.w3.org/1999/xlink" x="0px" y="0px"
	 viewBox="0 0 91.65 91.65" style="enable-background:new 0 0 91.65 91.65;" xml:space="preserve">
<style type="text/css">
	.st0{fill:#C756E2;}
	.st1{fill:#FFFFFF;}
</style>
<path class="st0" d="M45.82,0C20.56,0,0,20.56,0,45.82s20.56,45.82,45.82,45.82s45.82-20.56,45.82-45.82S71.09,0,45.82,0z
	 M67.73,60.72c1.94,1.94,1.94,5.07,0,7.01c-0.97,0.97-2.24,1.45-3.51,1.45c-1.27,0-2.54-0.49-3.5-1.45l-14.89-14.9l-14.89,14.9
	c-0.97,0.97-2.24,1.45-3.5,1.45c-1.27,0-2.54-0.49-3.51-1.45c-1.94-1.94-1.94-5.07,0-7.01l14.9-14.89l-14.9-14.89
	c-1.94-1.94-1.94-5.07,0-7.01c1.94-1.94,5.07-1.94,7.01,0l14.89,14.9l14.89-14.9c1.94-1.94,5.07-1.94,7.01,0
	c1.94,1.94,1.94,5.07,0,7.01l-14.9,14.89L67.73,60.72z"/>
<path class="st0" d="M45.82,0C20.56,0,0,20.56,0,45.82s20.56,45.82,45.82,45.82s45.82-20.56,45.82-45.82S71.09,0,45.82,0z
	 M67.73,60.72c1.94,1.94,1.94,5.07,0,7.01c-0.97,0.97-2.24,1.45-3.51,1.45c-1.27,0-2.54-0.49-3.5-1.45l-14.89-14.9l-14.89,14.9
	c-0.97,0.97-2.24,1.45-3.5,1.45c-1.27,0-2.54-0.49-3.51-1.45c-1.94-1.94-1.94-5.07,0-7.01l14.9-14.89l-14.9-14.89
	c-1.94-1.94-1.94-5.07,0-7.01c1.94-1.94,5.07-1.94,7.01,0l14.89,14.9l14.89-14.9c1.94-1.94,5.07-1.94,7.01,0
	c1.94,1.94,1.94,5.07,0,7.01l-14.9,14.89L67.73,60.72z"/>
</svg>
