<?xml version="1.0" encoding="utf-8"?>
<!-- Generator: Adobe Illustrator 25.2.0, SVG Export Plug-In . SVG Version: 6.00 Build 0)  -->
<svg version="1.1" id="Capa_1" xmlns="http://www.w3.org/2000/svg" xmlns:xlink="http://www.w3.org/1999/xlink" x="0px" y="0px"
	 viewBox="0 0 69.55 70.81" style="enable-background:new 0 0 69.55 70.81;" xml:space="preserve">
<style type="text/css">
	.st0{fill:#C756E2;}
	.st1{fill:#FFFFFF;}
</style>
<path class="st1" d="M20.82,27.55c0-1.31,1.06-2.37,2.37-2.37h10.1c1.31,0,2.37,1.06,2.37,2.37s-1.06,2.37-2.37,2.37h-10.1
	C21.88,29.92,20.82,28.86,20.82,27.55z M46.38,43.01c1.31,0,2.37-1.06,2.37-2.37s-1.06-2.37-2.37-2.37H23.19
	c-1.31,0-2.37,1.06-2.37,2.37s1.06,2.37,2.37,2.37H46.38z M69.55,34.73c0,19.2-15.62,34.82-34.82,34.82
	c-3.91,0.02-7.75-0.64-11.45-1.97L5.09,70.78c-0.14,0.02-0.27,0.03-0.4,0.03c-0.33,0-0.66-0.07-0.95-0.2
	c-0.57-0.24-1.01-0.69-1.25-1.28c-0.24-0.59-0.23-1.24,0.02-1.82l4.88-11.32C2.62,50.11,0,42.54,0,34.84
	C0,15.68,15.56,0.08,34.7,0.02L34.72,0h0.21c9.26,0.01,17.96,3.63,24.5,10.19C65.98,16.75,69.57,25.47,69.55,34.73z M8.6,65.35
	l14.5-2.53c0.46-0.08,0.88-0.04,1.27,0.12c3.33,1.25,6.83,1.89,10.38,1.89c16.59,0,30.08-13.5,30.08-30.1v-0.11
	c-0.01-7.99-3.13-15.51-8.79-21.15c-5.65-5.63-13.15-8.73-21.13-8.73c-0.02,0-0.05,0-0.07,0c-16.59,0-30.08,13.49-30.08,30.08
	c0,3.75,0.69,7.42,2.06,10.91c1.21,3.11,2.94,5.97,5.11,8.5c0.59,0.68,0.74,1.66,0.38,2.49L8.6,65.35z"/>
</svg>
