<?xml version="1.0" encoding="UTF-8"?>
<!DOCTYPE svg PUBLIC "-//W3C//DTD SVG 1.1//EN" "http://www.w3.org/Graphics/SVG/1.1/DTD/svg11.dtd">
<!-- Creator: CorelDRAW 2018 (64-Bit) -->
<svg xmlns="http://www.w3.org/2000/svg" xml:space="preserve" width="960px" height="960px" version="1.1" style="shape-rendering:geometricPrecision; text-rendering:geometricPrecision; image-rendering:optimizeQuality; fill-rule:evenodd; clip-rule:evenodd"
viewBox="0 0 960 960"
 xmlns:xlink="http://www.w3.org/1999/xlink">
 <defs>
  <style type="text/css">
   <![CDATA[
    .fil2 {fill:none}
    .fil0 {fill:#000}
    .fil1 {fill:#000;fill-rule:nonzero}
   ]]>
  </style>
 </defs>
 <g id="Layer_x0020_1">
  <metadata id="CorelCorpID_0Corel-Layer"/>
  <path class="fil0" d="M841.345 507.605l-388.335 0c-7.501,0 -13.582,6.082 -13.582,13.583 0,7.501 6.081,13.582 13.582,13.582l388.335 0c7.501,0 13.583,-6.081 13.583,-13.582 0,-7.501 -6.082,-13.583 -13.583,-13.583zm0 -96.491l-388.335 0c-7.501,0 -13.582,6.081 -13.582,13.582 0,7.501 6.081,13.583 13.582,13.583l388.335 -0.001c7.501,0 13.583,-6.081 13.583,-13.582 0,-7.502 -6.082,-13.583 -13.583,-13.583l0 0.001zm0 -96.492l-388.335 0c-7.501,0 -13.582,6.081 -13.582,13.582 0,7.501 6.081,13.582 13.582,13.582l388.335 0c7.501,0 13.583,-6.081 13.583,-13.582 0,-7.501 -6.082,-13.582 -13.583,-13.582zm-401.917 -82.909c0,7.501 6.081,13.582 13.582,13.582l388.335 0c7.501,0 13.583,-6.081 13.583,-13.582 0,-7.501 -6.082,-13.582 -13.583,-13.582l-388.335 0c-7.501,0 -13.582,6.081 -13.582,13.582zm-187.147 234.082l-51.099 -297.914 145.61 -24.961 0 316.256c0,7.501 6.082,13.582 13.583,13.582 7.501,0 13.582,-6.081 13.582,-13.582l0 -411.199 413.758 0.001 0.177 82.084c0,24.197 16.799,33.66 39.17,33.66 29.29,0 58.579,-0.012 87.869,-0.014l0 424.828c4.405,17.887 27.38,17.442 27.163,1.801l0 -441.708c0.002,-8.129 -4.41,-12.276 -7.63,-15.304 0,0 -90.069,-85.891 -109.462,-104.386 -4.164,-3.994 -8.471,-8.123 -16.511,-8.123l-438.47 0c-12.807,0 -23.227,10.418 -23.227,23.225l0 71.322 -154.538 26.49c-12.388,2.173 -20.717,14.028 -18.572,26.402l7.844 45.731c-50.231,16.903 -101.802,34.328 -151.587,52.212 -11.763,4.301 -17.937,17.381 -13.739,29.216l53.932 149.921c2.549,7.088 10.371,10.71 17.378,8.186 7.059,-2.539 10.722,-10.319 8.183,-17.379l-52.467 -145.85c46.904,-16.794 95.478,-33.23 142.949,-49.208 13.882,80.933 25.972,151.416 39.853,232.349 2.108,7.42 10.435,12.118 16.824,10.259 6.389,-1.859 10.784,-8.932 9.427,-17.897zm646.198 -329.254l-67.966 0c-6.141,0.027 -15.457,2.222 -15.457,-6.511l-0.157 -73.189 83.58 79.7z"/>
  <polygon class="fil1" points="128.179,503.412 164.53,511.544 63.128,938.674 26.777,930.543 "/>
  <path id="1" class="fil1" d="M334.33 535.937l0 353.472 -38.265 0 -2.87 -33.004c-16.262,26.148 -38.105,39.222 -65.528,39.222 -27.423,0 -48.708,-11.639 -63.854,-34.917 -15.147,-23.278 -22.72,-55.324 -22.72,-96.14 0,-26.467 3.746,-49.745 11.24,-69.833 7.494,-20.089 18.096,-35.635 31.808,-46.636 13.711,-11.001 29.496,-16.502 47.352,-16.502 23.916,0 43.846,10.045 59.789,30.134l0 -130.579 43.048 4.783zm-96.619 325.73c11.48,0 21.445,-3.189 29.895,-9.566 8.45,-6.378 16.342,-15.785 23.676,-28.221l0 -126.274c-14.349,-21.364 -31.09,-32.047 -50.222,-32.047 -16.901,0 -30.294,8.132 -40.178,24.394 -9.885,16.263 -14.668,40.816 -14.35,73.66 0,33.482 4.465,58.195 13.393,74.138 8.928,15.944 21.524,23.916 37.786,23.916z"/>
  <path id="2" class="fil1" d="M456.299 631.599c32.206,0 57.238,11.321 75.095,33.96 17.857,22.64 26.785,55.166 26.785,97.576 0,40.815 -9.088,73.101 -27.263,96.858 -18.176,23.756 -43.208,35.634 -75.095,35.634 -32.206,0 -57.317,-11.639 -75.334,-34.917 -18.016,-23.278 -27.024,-55.643 -27.024,-97.097 0,-41.772 9.087,-74.218 27.263,-97.336 18.176,-23.118 43.367,-34.678 75.573,-34.678zm0 34.439c-18.813,0 -33.163,7.892 -43.048,23.676 -9.885,15.784 -14.827,40.417 -14.827,73.899 0,65.369 19.132,98.054 57.397,98.054 38.265,0 57.397,-32.844 57.397,-98.532 0,-33.482 -4.783,-58.035 -14.349,-73.66 -9.566,-15.625 -23.756,-23.437 -42.57,-23.437z"/>
  <path id="3" class="fil1" d="M674.409 631.599c13.392,0 25.669,2.233 36.829,6.697 11.161,4.464 21.843,11.32 32.047,20.567l-19.132 25.829c-7.653,-6.059 -15.306,-10.603 -22.959,-13.632 -7.653,-3.029 -15.944,-4.544 -24.872,-4.544 -18.814,0 -33.402,7.972 -43.766,23.916 -10.363,15.943 -15.545,40.815 -15.545,74.616 0,63.137 19.771,94.705 59.311,94.705 8.928,0 17.06,-1.514 24.394,-4.543 7.334,-3.03 15.146,-7.574 23.437,-13.632l20.089 26.307c-20.408,18.494 -43.526,27.742 -69.355,27.742 -32.206,0 -57.477,-11.161 -75.812,-33.482 -18.335,-22.321 -27.503,-54.527 -27.503,-96.619 0,-27.423 4.225,-51.179 12.675,-71.268 8.45,-20.089 20.408,-35.554 35.873,-46.396 15.466,-10.842 33.562,-16.263 54.289,-16.263z"/>
  <path id="4" class="fil1" d="M851.862 631.599c29.017,0 54.846,9.566 77.486,28.699l-18.176 25.351c-10.204,-7.016 -19.77,-12.277 -28.698,-15.785 -8.929,-3.507 -18.336,-5.261 -28.221,-5.261 -13.074,0 -23.358,3.109 -30.851,9.327 -7.493,6.218 -11.24,14.748 -11.24,25.589 0,10.523 3.587,18.814 10.762,24.873 7.174,6.058 20.806,12.276 40.895,18.654 25.191,7.971 43.527,17.697 55.006,29.176 11.48,11.48 17.219,27.264 17.219,47.353 0,23.597 -8.61,42.171 -25.829,55.724 -17.219,13.552 -38.743,20.328 -64.571,20.328 -34.12,0 -62.978,-11.32 -86.575,-33.96l22.002 -23.916c20.09,16.263 41.295,24.394 63.616,24.394 14.03,0 25.35,-3.508 33.96,-10.523 8.61,-7.015 12.914,-16.741 12.914,-29.177 0,-8.928 -1.514,-16.103 -4.544,-21.524 -3.029,-5.421 -8.45,-10.284 -16.262,-14.588 -7.813,-4.305 -19.212,-8.849 -34.199,-13.632 -23.916,-7.972 -41.135,-17.538 -51.658,-28.699 -10.523,-11.16 -15.784,-25.35 -15.784,-42.569 0,-13.393 3.508,-25.351 10.523,-35.874 7.015,-10.522 16.74,-18.813 29.177,-24.872 12.436,-6.058 26.785,-9.088 43.048,-9.088z"/>
  <rect class="fil2" width="960" height="960"/>
 </g>
</svg>
