<?xml version="1.0" encoding="utf-8"?>
<!-- Generator: Adobe Illustrator 25.2.0, SVG Export Plug-In . SVG Version: 6.00 Build 0)  -->
<svg version="1.1" id="Capa_1" xmlns="http://www.w3.org/2000/svg" xmlns:xlink="http://www.w3.org/1999/xlink" x="0px" y="0px"
	 viewBox="0 0 70 69" style="enable-background:new 0 0 70 69;" xml:space="preserve">
<style type="text/css">
	.st0{fill:#FFFFFF;}
	.st1{fill:#4D4D4D;}
</style>
<path class="st0" d="M68.37,69H1.63C0.73,69,0,68.27,0,67.37V1.63C0,0.73,0.73,0,1.63,0h66.74C69.27,0,70,0.73,70,1.63v65.74
	C70,68.27,69.27,69,68.37,69z"/>
<path class="st1" d="M22.56,48.09h21.07l-1.01-3.26l2.41,2.07l2.21,1.98l4.02,3.36V20.42c-0.1-1.98-1.8-3.66-3.91-3.66l-24.78,0
	c-2.11,0-3.82,1.68-3.82,3.66v24C18.75,46.52,20.45,48.09,22.56,48.09L22.56,48.09z M38.14,25.17l-0.05,0.02l0.02-0.02H38.14z
	 M26.87,27.04c2.71-1.97,5.22-1.88,5.22-1.88l0.2,0.2c-3.31,0.79-4.82,2.27-4.82,2.27s0.4-0.2,1.1-0.5
	c4.46-1.76,9.34-1.63,13.85,0.59c0,0-1.51-1.38-4.62-2.27l0.27-0.27c0.43,0,2.71,0.08,5.14,1.86c0,0,2.72,4.65,2.72,10.37
	c-0.09-0.11-1.69,2.46-5.81,2.55c0,0-0.7-0.79-1.19-1.48c2.41-0.69,3.31-2.07,3.31-2.07c-0.79,0.5-1.51,0.79-2.1,1.09
	c-0.9,0.4-1.8,0.59-2.7,0.79c-4.26,0.69-6.65-0.47-8.91-1.38l-0.77-0.39c0,0,0.9,1.38,3.21,2.07c-0.61,0.69-1.21,1.48-1.21,1.48
	c-4.12-0.1-5.62-2.67-5.62-2.67C24.16,31.69,26.87,27.04,26.87,27.04L26.87,27.04z M38.41,35.64c1.05,0,1.91-0.89,1.91-1.98
	c0-1.09-0.85-1.97-1.91-1.97v0c-1.05,0-1.9,0.88-1.91,1.98C36.5,34.75,37.36,35.64,38.41,35.64z M31.59,35.64
	c1.05,0,1.91-0.89,1.91-1.98c0-1.09-0.85-1.97-1.9-1.97l-0.01,0c-1.05,0-1.91,0.88-1.91,1.98C29.68,34.75,30.54,35.64,31.59,35.64z"
	/>
</svg>
