<?xml version="1.0" encoding="utf-8"?>
<!-- Generator: Adobe Illustrator 25.2.0, SVG Export Plug-In . SVG Version: 6.00 Build 0)  -->
<svg version="1.1" id="Capa_1" xmlns="http://www.w3.org/2000/svg" xmlns:xlink="http://www.w3.org/1999/xlink" x="0px" y="0px"
	 viewBox="0 0 32.51 35.46" style="enable-background:new 0 0 32.51 35.46;" xml:space="preserve">
<style type="text/css">
	.st0{fill:#FFFFFF;}
</style>
<path class="st0" d="M3.81,31.32h21.07l-1.01-3.26l2.41,2.07l2.21,1.98l4.02,3.36V3.66C32.41,1.68,30.71,0,28.6,0L3.82,0
	C1.71,0,0,1.69,0,3.66v24C0,29.75,1.71,31.32,3.81,31.32L3.81,31.32z M19.4,8.4l-0.05,0.02l0.02-0.02H19.4z M8.12,10.27
	c2.71-1.97,5.22-1.88,5.22-1.88l0.2,0.2c-3.31,0.79-4.82,2.27-4.82,2.27s0.4-0.2,1.1-0.5c4.46-1.76,9.34-1.63,13.85,0.59
	c0,0-1.51-1.38-4.62-2.27l0.27-0.27c0.43,0,2.71,0.08,5.14,1.86c0,0,2.72,4.65,2.72,10.37c-0.09-0.11-1.69,2.46-5.81,2.55
	c0,0-0.7-0.79-1.19-1.48c2.41-0.69,3.31-2.07,3.31-2.07c-0.79,0.5-1.51,0.79-2.1,1.09c-0.9,0.4-1.8,0.59-2.7,0.79
	c-4.26,0.69-6.65-0.47-8.91-1.38l-0.77-0.39c0,0,0.9,1.38,3.21,2.07c-0.61,0.69-1.21,1.48-1.21,1.48c-4.12-0.1-5.62-2.67-5.62-2.67
	C5.41,14.92,8.12,10.27,8.12,10.27L8.12,10.27z M19.67,18.87c1.05,0,1.91-0.89,1.91-1.98c0-1.09-0.85-1.97-1.91-1.97v0
	c-1.05,0-1.9,0.88-1.91,1.98C17.76,17.99,18.61,18.87,19.67,18.87z M12.84,18.87c1.05,0,1.91-0.89,1.91-1.98
	c0-1.09-0.85-1.97-1.9-1.97l-0.01,0c-1.05,0-1.91,0.88-1.91,1.98C10.93,17.99,11.79,18.87,12.84,18.87z"/>
</svg>
