<?xml version="1.0" encoding="utf-8"?>
<!-- Generator: Adobe Illustrator 25.2.0, SVG Export Plug-In . SVG Version: 6.00 Build 0)  -->
<svg version="1.1" id="Capa_1" xmlns="http://www.w3.org/2000/svg" xmlns:xlink="http://www.w3.org/1999/xlink" x="0px" y="0px"
	 viewBox="0 0 68.74 50.54" style="enable-background:new 0 0 68.74 50.54;" xml:space="preserve">
<style type="text/css">
	.st0{fill:#C756E2;}
	.st1{fill:#FFFFFF;}
</style>
<path class="st1" d="M12.49,27.11c-0.78-0.78-0.78-2.04,0-2.81l8.91-8.91c0.75-0.75,2.06-0.75,2.81,0c0.78,0.78,0.78,2.04,0,2.81
	l-7.51,7.51l6.64,6.64c0.38,0.38,0.58,0.87,0.58,1.41c0,0.53-0.21,1.03-0.58,1.41c-0.39,0.39-0.9,0.58-1.41,0.58
	c-0.51,0-1.02-0.19-1.41-0.58L12.49,27.11z M45.93,35.74c0.53,0,1.03-0.21,1.41-0.58l8.91-8.91c0.78-0.78,0.78-2.04,0-2.81
	l-8.05-8.05c-0.75-0.75-2.06-0.75-2.81,0c-0.38,0.38-0.58,0.87-0.58,1.41c0,0.53,0.21,1.03,0.58,1.41l6.64,6.64l-7.51,7.51
	c-0.78,0.78-0.78,2.04,0,2.81C44.9,35.53,45.4,35.74,45.93,35.74z M29.44,38.67c0.22,0.08,0.44,0.11,0.66,0.11
	c0.82,0,1.59-0.51,1.88-1.33l8.14-23.05c0.18-0.5,0.15-1.04-0.08-1.52c-0.23-0.48-0.63-0.84-1.13-1.02
	c-0.5-0.18-1.04-0.15-1.52,0.08c-0.48,0.23-0.84,0.63-1.02,1.13l-8.14,23.05c-0.18,0.5-0.15,1.04,0.08,1.52
	C28.54,38.13,28.94,38.49,29.44,38.67z M68.74,10.05v30.43c0,5.54-4.51,10.05-10.05,10.05H10.05C4.51,50.54,0,46.03,0,40.48V10.05
	C0,4.51,4.51,0,10.05,0h48.64C64.23,0,68.74,4.51,68.74,10.05z M4.87,40.48c0,2.86,2.32,5.18,5.18,5.18h48.64
	c2.86,0,5.18-2.32,5.18-5.18V10.05c0-2.86-2.32-5.18-5.18-5.18H10.05c-2.86,0-5.18,2.32-5.18,5.18V40.48z"/>
</svg>
