<?xml version="1.0" encoding="utf-8"?>
<!-- Generator: Adobe Illustrator 25.2.0, SVG Export Plug-In . SVG Version: 6.00 Build 0)  -->
<svg version="1.1" id="Capa_1" xmlns="http://www.w3.org/2000/svg" xmlns:xlink="http://www.w3.org/1999/xlink" x="0px" y="0px"
	 viewBox="0 0 70 69" style="enable-background:new 0 0 70 69;" xml:space="preserve">
<style type="text/css">
	.st0{fill:#FFFFFF;}
	.st1{fill:url(#SVGID_1_);}
</style>
<path class="st0" d="M67.31,69H2.69C1.21,69,0,67.79,0,66.31V2.69C0,1.21,1.21,0,2.69,0h64.62C68.79,0,70,1.21,70,2.69v63.62
	C70,67.79,68.79,69,67.31,69z"/>
<linearGradient id="SVGID_1_" gradientUnits="userSpaceOnUse" x1="14.5319" y1="36.0851" x2="57" y2="36.0851">
	<stop  offset="7.672017e-07" style="stop-color:#00FFFF"/>
	<stop  offset="0.4743" style="stop-color:#B153D1"/>
	<stop  offset="0.9977" style="stop-color:#3A006A"/>
</linearGradient>
<path class="st1" d="M43.23,41.31c-0.46,0-0.83,0.37-0.83,0.83v5.72c0,2.29-1.86,4.15-4.15,4.15H29.3c-0.46,0-0.83,0.37-0.83,0.83
	l0,1.65l-1.98-1.98c-0.13-0.29-0.42-0.5-0.76-0.5h-5.39c-2.29,0-4.15-1.86-4.15-4.15V35.09c0-2.29,1.86-4.15,4.15-4.15h8.38
	c0.46,0,0.83-0.37,0.83-0.83s-0.37-0.83-0.83-0.83h-8.38c-3.2,0-5.81,2.6-5.81,5.81v12.77c0,3.2,2.6,5.81,5.81,5.81h4.96l3.41,3.41
	c0.16,0.16,0.37,0.24,0.59,0.24c0.11,0,0.21-0.02,0.32-0.06c0.31-0.13,0.51-0.43,0.51-0.77l0-2.82h8.13c3.2,0,5.81-2.6,5.81-5.81
	v-5.72C44.06,41.68,43.69,41.31,43.23,41.31z M44.94,14.85h-2.1c-6.65,0-12.06,5.41-12.06,12.06s5.41,12.06,12.06,12.06h2.1
	c1.04,0,2.06-0.13,3.06-0.39l3.1,3.1c0.16,0.16,0.37,0.24,0.59,0.24c0.11,0,0.21-0.02,0.32-0.06c0.31-0.13,0.51-0.43,0.51-0.77v-4.8
	c1.31-1.06,2.4-2.41,3.17-3.91c0.87-1.7,1.31-3.54,1.31-5.47C57,20.26,51.59,14.85,44.94,14.85z M51.19,35.22
	c-0.21,0.16-0.33,0.4-0.33,0.66v3.2l-2.03-2.03c-0.16-0.16-0.37-0.24-0.59-0.24c-0.08,0-0.16,0.01-0.24,0.04
	c-0.99,0.3-2.02,0.46-3.06,0.46h-2.1c-5.73,0-10.4-4.66-10.4-10.4s4.66-10.4,10.4-10.4h2.1c5.73,0,10.4,4.66,10.4,10.4
	C55.34,30.2,53.83,33.23,51.19,35.22z M47.63,23.93c-0.12-1.74-1.52-3.14-3.26-3.26c-0.98-0.07-1.92,0.26-2.64,0.94
	c-0.71,0.66-1.12,1.6-1.12,2.57c0,0.46,0.37,0.83,0.83,0.83s0.83-0.37,0.83-0.83c0-0.52,0.21-1,0.59-1.35
	c0.38-0.35,0.88-0.53,1.4-0.49c0.91,0.06,1.65,0.8,1.72,1.71c0.06,0.92-0.54,1.74-1.44,1.94c-0.73,0.16-1.24,0.8-1.24,1.54v1.99
	c0,0.46,0.37,0.83,0.83,0.83c0.46,0,0.83-0.37,0.83-0.83v-1.93C46.63,27.18,47.75,25.65,47.63,23.93z M44.71,32.21
	c-0.15-0.15-0.37-0.24-0.59-0.24s-0.43,0.09-0.59,0.24s-0.24,0.37-0.24,0.59c0,0.22,0.09,0.43,0.24,0.59
	c0.15,0.15,0.37,0.24,0.59,0.24s0.43-0.09,0.59-0.24c0.15-0.16,0.24-0.37,0.24-0.59C44.96,32.58,44.87,32.36,44.71,32.21z
	 M37.34,40.56h-17.5c-0.46,0-0.83,0.37-0.83,0.83c0,0.46,0.37,0.83,0.83,0.83h17.5c0.46,0,0.83-0.37,0.83-0.83
	C38.17,40.94,37.8,40.56,37.34,40.56z M37.93,45.45c-0.15-0.15-0.37-0.24-0.59-0.24s-0.43,0.09-0.59,0.24
	c-0.15,0.15-0.24,0.37-0.24,0.59s0.09,0.43,0.24,0.59s0.37,0.24,0.59,0.24s0.43-0.09,0.59-0.24c0.15-0.15,0.24-0.37,0.24-0.59
	C38.17,45.82,38.08,45.61,37.93,45.45z M34.08,45.21H19.84c-0.46,0-0.83,0.37-0.83,0.83c0,0.46,0.37,0.83,0.83,0.83h14.24
	c0.46,0,0.83-0.37,0.83-0.83C34.91,45.58,34.54,45.21,34.08,45.21z M31.95,35.92H19.84c-0.46,0-0.83,0.37-0.83,0.83
	c0,0.46,0.37,0.83,0.83,0.83h12.11c0.46,0,0.83-0.37,0.83-0.83C32.78,36.29,32.41,35.92,31.95,35.92z"/>
</svg>
