<?xml version="1.0" encoding="utf-8"?>
<!-- Generator: Adobe Illustrator 25.2.0, SVG Export Plug-In . SVG Version: 6.00 Build 0)  -->
<svg version="1.1" id="Capa_1" xmlns="http://www.w3.org/2000/svg" xmlns:xlink="http://www.w3.org/1999/xlink" x="0px" y="0px"
	 viewBox="0 0 35.46 33.99" style="enable-background:new 0 0 35.46 33.99;" xml:space="preserve">
<style type="text/css">
	.st0{fill:#FFFFFF;}
</style>
<path class="st0" d="M17.73,0C7.94,0,0,7.8,0,17.43c0,7.7,5.08,14.23,12.12,16.53c0.89,0.16,1.21-0.38,1.21-0.84
	c0-0.41-0.01-1.51-0.02-2.96c-4.93,1.05-5.97-2.34-5.97-2.34c-0.81-2.01-1.97-2.55-1.97-2.55c-1.61-1.08,0.12-1.06,0.12-1.06
	c1.78,0.12,2.72,1.8,2.72,1.8c1.58,2.66,4.15,1.89,5.16,1.45c0.16-1.13,0.62-1.89,1.12-2.33c-3.94-0.44-8.08-1.93-8.08-8.61
	c0-1.9,0.69-3.46,1.82-4.68c-0.2-0.44-0.8-2.21,0.16-4.61c0,0,1.49-0.47,4.88,1.79c1.42-0.39,2.93-0.58,4.43-0.59
	c1.51,0.01,3.01,0.2,4.43,0.59C25.51,6.76,27,7.23,27,7.23c0.95,2.4,0.35,4.17,0.18,4.61c1.13,1.22,1.82,2.77,1.82,4.68
	c0,6.69-4.14,8.17-8.09,8.6c0.62,0.52,1.2,1.59,1.2,3.22c0,2.33-0.02,4.21-0.02,4.77c0,0.46,0.31,1,1.22,0.83
	c7.09-2.29,12.17-8.82,12.17-16.51C35.46,7.8,27.53,0,17.73,0z"/>
</svg>
