<?xml version="1.0" encoding="utf-8"?>
<!-- Generator: Adobe Illustrator 25.2.0, SVG Export Plug-In . SVG Version: 6.00 Build 0)  -->
<svg version="1.1" id="Capa_1" xmlns="http://www.w3.org/2000/svg" xmlns:xlink="http://www.w3.org/1999/xlink" x="0px" y="0px"
	 viewBox="0 0 66.49 67.09" style="enable-background:new 0 0 66.49 67.09;" xml:space="preserve">
<style type="text/css">
	.st0{fill:#C756E2;}
	.st1{fill:#FFFFFF;}
</style>
<path class="st1" d="M20.01,41.6c-0.18-0.48-0.73-2.13-0.14-3.34c0.41-0.83,1.16-1.48,2.03-1.72c0.93-0.26,1.96-0.06,2.69,0.54
	c0.84,0.69,1.13,1.7,1.39,2.58c0.11,0.37,0.21,0.71,0.33,1c1.37,3.04,5.16,4.96,8.46,4.29c2.85-0.58,5.2-2.77,5.98-5.57
	c0.25-0.92,0.73-2.19,1.93-2.71c0.9-0.39,1.9-0.31,2.76,0.2c0.86,0.51,1.42,1.4,1.5,2.37c0.08,0.93-0.21,1.8-0.44,2.38
	c-1.49,3.73-3.6,6.29-6.46,7.83h0c-1.49,0.8-3.07,1.33-4.71,1.56c-0.65,0.09-1.31,0.14-1.97,0.14c-2.48,0-4.97-0.66-7.31-1.94
	l-0.45-0.27l-2.14-1.74C21.97,45.6,20.81,43.71,20.01,41.6z M66.49,56.17c0,1.97-0.52,3.91-1.61,5.93l-0.08,0.13
	c-0.95,1.21-2,2.27-3.13,3.13l-0.09,0.06c-2.45,1.46-5.07,1.67-7.33,1.67c-0.04,0-0.07,0-0.11,0c-12.84-0.04-25.9-0.02-38.53-0.01
	l-3.56,0c-1.94,0-4.13-0.09-6.16-1.18c-3.81-2.05-5.84-5.29-5.86-9.39C0,49.46,0.01,42.4,0.01,35.56l0-0.9c0-2.7,0-5.4,0-8.1
	c0-0.35,0-0.7-0.01-1.05c-0.03-2.48-0.05-5.05,1.12-7.41c0.81-1.62,2.14-3.06,3.97-4.28c0.74-0.5,1.58-0.97,2.5-1.4
	c1.97-0.93,3.94-2.05,5.84-3.13c0.99-0.56,1.97-1.12,2.95-1.65c3.65-1.99,7.31-3.98,10.95-5.99c3.95-2.18,7.75-2.2,11.62-0.07
	c1.87,1.03,3.77,2.04,5.66,3.04c0.85,0.45,1.7,0.9,2.55,1.36l0.13,0.09c0.47,0.37,1.03,0.68,1.78,0.97l0.11,0.05l1.04,0.59
	c1.62,0.93,3.3,1.89,5.02,2.64l0.24,0.15c0.39,0.34,0.85,0.6,1.43,0.79l0.15,0.07l3.63,2.04c3.83,2.16,5.77,5.43,5.78,9.7
	c0.01,4.99,0.01,9.98,0.01,14.98C66.48,44.09,66.48,50.13,66.49,56.17z M6.15,50.29c0,0.69-0.04,1.41-0.08,2.17
	c-0.14,2.61-0.29,5.31,1.26,7c0.98,1.06,2.36,1.51,4.52,1.48c1.58-0.03,3.13-0.03,4.69-0.02l9.28,0l12.2,0c1.46,0,2.93,0,4.4,0
	c2.2,0,4.4,0,6.59,0c0.59,0,1.24,0.03,1.93,0.06c3.26,0.15,7.33,0.32,8.76-2.36c0.06-0.11,0.12-0.23,0.16-0.35
	c0.19-0.45,0.32-0.93,0.4-1.48c0.15-0.98,0.11-2.01,0.08-3.09c-0.02-0.62-0.04-1.23-0.03-1.83c0.04-1.99,0.03-4.04,0.01-6.01
	l-0.02-4.69l0.01-9.35l-0.01-2.72c0-0.63,0.01-1.26,0.02-1.88c0.02-1.51,0.04-3.08,0.01-4.61c-0.04-2.05-1.69-3.36-4.16-4.69
	L36.44,7.23c-1.76-0.95-3.34-1.67-4.92-0.83c-4.68,2.51-9.27,5-14.71,7.97l-7.34,4.01c-2.09,1.14-3.24,2.16-3.36,4.27
	c-0.04,0.77-0.02,1.55,0.01,2.37c0.01,0.37,0.02,0.74,0.03,1.11L6.14,35.5l0.01,2.71l-0.01,9.35L6.15,50.29z"/>
</svg>
