<?xml version="1.0" encoding="utf-8"?>
<!-- Generator: Adobe Illustrator 25.2.0, SVG Export Plug-In . SVG Version: 6.00 Build 0)  -->
<svg version="1.1" id="Capa_1" xmlns="http://www.w3.org/2000/svg" xmlns:xlink="http://www.w3.org/1999/xlink" x="0px" y="0px"
	 viewBox="0 0 142 142" style="enable-background:new 0 0 142 142;" xml:space="preserve">
<style type="text/css">
	.st0{fill:#FFFFFF;}
	.st1{opacity:0.5;fill:#C756E2;}
	.st2{opacity:0.5;fill:#00FFFF;}
	.st3{opacity:0.5;fill:#FFFF00;}
	.st4{opacity:0.5;fill:#ED1E79;}
	.st5{fill:#263F59;}
</style>
<path class="st0" d="M119.38,142H22.62C10.13,142,0,131.87,0,119.38V22.62C0,10.13,10.13,0,22.62,0h96.77
	C131.87,0,142,10.13,142,22.62v96.77C142,131.87,131.87,142,119.38,142z"/>
<rect x="40" y="42" class="st1" width="77" height="56"/>
<path class="st0" d="M103.2,111.87c0,0.95-0.77,1.72-1.72,1.72H80.9c-0.95,0-1.72-0.77-1.72-1.72V71.19l7.91,7.91h-2.74
	c-0.95,0-1.72,0.77-1.72,1.72s0.77,1.72,1.72,1.72h6.9c0.95,0,1.72-0.77,1.72-1.72v-6.9c0-0.95-0.77-1.72-1.72-1.72
	s-1.72,0.77-1.72,1.72v2.73l-7.91-7.91h19.87c0.95,0,1.72,0.77,1.72,1.72V111.87z"/>
<path class="st1" d="M110.2,119.87c0,0.95-0.77,1.72-1.72,1.72H83.9c-0.95,0-1.72-0.77-1.72-1.72V75.19l7.91,7.91h-2.74
	c-0.95,0-1.72,0.77-1.72,1.72s0.77,1.72,1.72,1.72h6.9c0.95,0,1.72-0.77,1.72-1.72v-6.9c0-0.95-0.77-1.72-1.72-1.72
	s-1.72,0.77-1.72,1.72v2.73l-7.91-7.91h23.87c0.95,0,1.72,0.77,1.72,1.72V119.87z"/>
<path class="st0" d="M99.22,59.55h19.27c1.94,0,3.5-1.57,3.5-3.5s-1.57-3.5-3.5-3.5H99.22c-1.94,0-3.5,1.57-3.5,3.5
	C95.72,57.98,97.29,59.55,99.22,59.55z"/>
<path class="st0" d="M84.93,96.47h16.13c1.62,0,2.93-1.33,2.93-2.97s-1.31-2.97-2.93-2.97H84.93c-1.62,0-2.93,1.33-2.93,2.97
	C82,95.15,83.31,96.47,84.93,96.47z"/>
<path class="st0" d="M48.25,71.15h15.86c1.59,0,2.88-1.29,2.88-2.88s-1.29-2.88-2.88-2.88H48.26c-1.59,0-2.88,1.29-2.88,2.88
	C45.37,69.86,46.66,71.15,48.25,71.15z"/>
<path class="st2" d="M48.25,71.15h15.86c1.59,0,2.88-1.29,2.88-2.88s-1.29-2.88-2.88-2.88H48.26c-1.59,0-2.88,1.29-2.88,2.88
	C45.37,69.86,46.66,71.15,48.25,71.15z"/>
<path class="st0" d="M85.99,78.62h14.4c1.45,0,2.62-1.17,2.62-2.62s-1.17-2.62-2.62-2.62H85.99c-1.45,0-2.62,1.17-2.62,2.62
	C83.37,77.45,84.54,78.62,85.99,78.62z"/>
<path class="st3" d="M85.93,96.47h16.13c1.62,0,2.93-1.33,2.93-2.97s-1.31-2.97-2.93-2.97H85.93c-1.62,0-2.93,1.33-2.93,2.97
	C83,95.15,84.31,96.47,85.93,96.47z"/>
<path class="st2" d="M86.99,78.62h14.4c1.45,0,2.62-1.17,2.62-2.62s-1.17-2.62-2.62-2.62H86.99c-1.45,0-2.62,1.17-2.62,2.62
	C84.37,77.45,85.54,78.62,86.99,78.62z"/>
<path class="st0" d="M45.44,66.99h9.48c0.95,0,1.72-0.77,1.72-1.72s-0.77-1.72-1.72-1.72h-9.48c-0.95,0-1.72,0.77-1.72,1.72
	C43.72,66.22,44.49,66.99,45.44,66.99z"/>
<path class="st0" d="M87.68,53.99c0.95,0,1.72-0.77,1.72-1.72c0-0.95-0.77-1.72-1.72-1.72h0c-0.95,0-1.72,0.77-1.72,1.72
	C85.96,53.22,86.73,53.99,87.68,53.99z"/>
<path class="st0" d="M33.88,97.73c-0.95,0-1.72-0.77-1.72-1.72v-3.45h29.09c0.6,1.03,1.71,1.72,2.99,1.72h11.49v3.45H33.88z"/>
<path class="st0" d="M113.55,96c0,0.95-0.77,1.72-1.72,1.72h-5.17v-5.17h6.9V96z"/>
<path class="st0" d="M95.44,53.99h9.48c0.95,0,1.72-0.77,1.72-1.72c0-0.95-0.77-1.72-1.72-1.72h-9.48c-0.95,0-1.72,0.77-1.72,1.72
	C93.72,53.22,94.49,53.99,95.44,53.99z"/>
<path class="st3" d="M99.22,59.55h19.27c1.94,0,3.5-1.57,3.5-3.5s-1.57-3.5-3.5-3.5H99.22c-1.94,0-3.5,1.57-3.5,3.5
	C95.72,57.98,97.29,59.55,99.22,59.55z"/>
<rect x="40" y="42" class="st0" width="20" height="13"/>
<rect x="41" y="44" class="st4" width="16" height="8"/>
<path class="st5" d="M115.28,89.1h-1.72V33.92c0-2.85-2.32-5.17-5.17-5.17H37.32c-2.85,0-5.17,2.32-5.17,5.17V89.1h-1.72
	c-0.95,0-1.72,0.77-1.72,1.72V96c0,2.85,2.32,5.17,5.17,5.17h41.85v10.69c0,2.85,2.32,5.17,5.17,5.17h20.58
	c2.85,0,5.17-2.32,5.17-5.17v-10.69h5.17c2.85,0,5.17-2.32,5.17-5.17v-5.17C117,89.88,116.23,89.1,115.28,89.1z M106.65,89.1v-3.45
	h3.45v3.45H106.65z M37.32,32.19h71.05c0.95,0,1.72,0.77,1.72,1.72v1.72H35.6v-1.72C35.6,32.97,36.37,32.19,37.32,32.19z
	 M35.6,85.65h1.72c0.95,0,1.72-0.77,1.72-1.72s-0.77-1.72-1.72-1.72H35.6V39.09h74.5v43.11h-3.45V70.48c0-2.85-2.32-5.17-5.17-5.17
	H80.9c-0.8,0-1.55,0.18-2.23,0.51l-7.4-7.4H74c0.95,0,1.72-0.77,1.72-1.72c0-0.95-0.77-1.72-1.72-1.72h-6.9
	c-0.95,0-1.72,0.77-1.72,1.72v6.9c0,0.95,0.77,1.72,1.72,1.72c0.95,0,1.72-0.77,1.72-1.72v-2.74l7.4,7.4
	c-0.32,0.68-0.51,1.43-0.51,2.23v11.73H52.85c-0.95,0-1.72,0.77-1.72,1.72s0.77,1.72,1.72,1.72h22.88v5.17H64.23
	c0-0.95-0.77-1.72-1.72-1.72H35.6V85.65z M33.88,97.73c-0.95,0-1.72-0.77-1.72-1.72v-3.45h29.09c0.6,1.03,1.71,1.72,2.99,1.72h11.49
	v3.45H33.88z M103.2,111.87c0,0.95-0.77,1.72-1.72,1.72H80.9c-0.95,0-1.72-0.77-1.72-1.72V71.19l7.91,7.91h-2.74
	c-0.95,0-1.72,0.77-1.72,1.72s0.77,1.72,1.72,1.72h6.9c0.95,0,1.72-0.77,1.72-1.72v-6.9c0-0.95-0.77-1.72-1.72-1.72
	s-1.72,0.77-1.72,1.72v2.73l-7.91-7.91h19.87c0.95,0,1.72,0.77,1.72,1.72V111.87z M113.55,96c0,0.95-0.77,1.72-1.72,1.72h-5.17
	v-5.17h6.9V96z M91.19,108.42L91.19,108.42c-0.95,0-1.73,0.77-1.73,1.72c0,0.95,0.77,1.72,1.73,1.72s1.72-0.77,1.72-1.72
	C92.91,109.19,92.14,108.42,91.19,108.42z M95.44,45.99h9.48c0.95,0,1.72-0.77,1.72-1.72c0-0.95-0.77-1.72-1.72-1.72h-9.48
	c-0.95,0-1.72,0.77-1.72,1.72C93.72,45.22,94.49,45.99,95.44,45.99z M87.68,45.99c0.95,0,1.72-0.77,1.72-1.72
	c0-0.95-0.77-1.72-1.72-1.72h0c-0.95,0-1.72,0.77-1.72,1.72C85.96,45.22,86.73,45.99,87.68,45.99z M45.09,82.21L45.09,82.21
	c-0.95,0-1.73,0.77-1.73,1.72s0.77,1.72,1.73,1.72c0.95,0,1.72-0.77,1.72-1.72S46.04,82.21,45.09,82.21z"/>
</svg>
