<?xml version="1.0" encoding="utf-8"?>
<!-- Generator: Adobe Illustrator 25.2.0, SVG Export Plug-In . SVG Version: 6.00 Build 0)  -->
<svg version="1.1" id="Capa_1" xmlns="http://www.w3.org/2000/svg" xmlns:xlink="http://www.w3.org/1999/xlink" x="0px" y="0px"
	 viewBox="0 0 142.67 142.67" style="enable-background:new 0 0 142.67 142.67;" xml:space="preserve">
<style type="text/css">
	.st0{fill:#FFFFFF;}
	.st1{opacity:0.5;fill:#C756E2;}
	.st2{opacity:0.5;fill:#ED1E79;}
	.st3{opacity:0.5;fill:#FFFF00;}
	.st4{opacity:0.5;fill:#00FFFF;}
	.st5{fill:#263F59;}
</style>
<g>
	<path class="st0" d="M120.05,142.67H22.62C10.13,142.67,0,132.54,0,120.05V22.62C0,10.13,10.13,0,22.62,0h97.44
		c12.49,0,22.62,10.13,22.62,22.62v97.44C142.67,132.54,132.54,142.67,120.05,142.67z"/>
	<g>
		<rect x="62" y="32.67" class="st1" width="31.3" height="21.56"/>
		<path class="st1" d="M85.79,121.67H65.09c-1.7,0-3.09-1.38-3.09-3.09v-7.44c0-1.7,1.38-3.09,3.09-3.09h20.71
			c1.7,0,3.09,1.38,3.09,3.09v7.44C88.88,120.29,87.5,121.67,85.79,121.67z"/>
		<rect x="95.3" y="82.64" class="st2" width="25.7" height="8.99"/>
		<rect x="92.73" y="104.49" class="st3" width="25.7" height="8.99"/>
		<polygon class="st0" points="33.62,60.26 40.78,65.37 33.62,70.49 26.46,65.37 		"/>
		<polygon class="st4" points="37.47,60.41 51.61,70.51 37.47,80.62 23.33,70.51 		"/>
		<polygon class="st4" points="74.89,80.97 89.03,91.07 74.89,101.17 60.74,91.07 		"/>
		<g>
			<g>
				<path class="st5" d="M79.74,102H71.6v-7.39l12.05-7.53L71.6,79.54V70.8h8.14V59.95H71.6v-9.5h17.85V21.46H51.03v28.99h17.85v9.5
					h-8.14v4.07H48.54v2.71h12.21v4.07h8.14v8.74l-12.05,7.53l12.05,7.53V102h-8.14c-2.24,0-4.07,1.83-4.07,4.07v5.43
					c0,2.24,1.83,4.07,4.07,4.07h18.99c2.24,0,4.07-1.83,4.07-4.07v-5.43C83.81,103.82,81.98,102,79.74,102z M53.75,24.18h32.99
					v23.56H53.75V24.18z M63.46,62.66h13.56v5.43H63.46V62.66z M70.24,81.89l8.29,5.18l-8.29,5.18l-8.29-5.18L70.24,81.89z
					 M81.09,111.49c0,0.75-0.61,1.36-1.36,1.36H60.75c-0.75,0-1.36-0.61-1.36-1.36v-5.43c0-0.75,0.61-1.36,1.36-1.36h18.99
					c0.75,0,1.36,0.61,1.36,1.36V111.49z"/>
				<path class="st5" d="M46.22,104.31l3.11,3.11h-11.9c-0.41-1.15-1.31-2.05-2.46-2.46V76.23h-2.71v28.74
					c-1.57,0.56-2.71,2.05-2.71,3.82c0,2.24,1.83,4.07,4.07,4.07c1.77,0,3.26-1.14,3.82-2.71h11.9l-3.11,3.11l1.92,1.92l6.38-6.38
					l-6.38-6.38L46.22,104.31z M33.62,110.14c-0.75,0-1.36-0.61-1.36-1.36c0-0.75,0.61-1.36,1.36-1.36s1.36,0.61,1.36,1.36
					C34.97,109.53,34.36,110.14,33.62,110.14z"/>
				<path class="st5" d="M104.15,83.26V44.78c1.57-0.56,2.71-2.05,2.71-3.82c0-2.24-1.83-4.07-4.07-4.07
					c-1.77,0-3.26,1.14-3.82,2.71h-7.13H88v2.71h3.68h7.3c0.41,1.15,1.31,2.05,2.46,2.46v38.48c-1.15,0.41-2.05,1.31-2.46,2.46
					h-9.18l3.11-3.11l-1.92-1.92l-6.38,6.38l6.38,6.38l1.92-1.92l-3.11-3.11h9.18c0.56,1.57,2.05,2.71,3.82,2.71
					c2.24,0,4.07-1.83,4.07-4.07C106.87,85.31,105.73,83.82,104.15,83.26z M102.8,39.6c0.75,0,1.36,0.61,1.36,1.36
					c0,0.75-0.61,1.36-1.36,1.36c-0.75,0-1.36-0.61-1.36-1.36C101.44,40.21,102.05,39.6,102.8,39.6z M102.8,88.43
					c-0.75,0-1.36-0.61-1.36-1.36c0-0.75,0.61-1.36,1.36-1.36c0.75,0,1.36,0.61,1.36,1.36C104.15,87.82,103.54,88.43,102.8,88.43z"
					/>
				<path class="st5" d="M45.45,65.37l-11.83-8.45l-11.83,8.45l11.83,8.45L45.45,65.37z M33.62,60.26l7.16,5.12l-7.16,5.12
					l-7.16-5.12L33.62,60.26z"/>
				<path class="st5" d="M56.46,25.89H59v2.71h-2.54V25.89z"/>
				<path class="st5" d="M61.46,25.89H64v2.71h-2.54V25.89z"/>
				<path class="st5" d="M80.31,35.31h2.71v2.71h-2.71V35.31z"/>
				<path class="st5" d="M75.31,35.31h2.71v2.71h-2.71V35.31z"/>
				<path class="st5" d="M97.37,107.42h2.71v2.71h-2.71V107.42z"/>
				<path class="st5" d="M91.94,107.42h2.71v2.71h-2.71V107.42z"/>
				<path class="st5" d="M86.52,107.42h2.71v2.71h-2.71V107.42z"/>
				<path class="st5" d="M38.18,34.31h2.71v2.71h-2.71V34.31z"/>
				<path class="st5" d="M32.18,34.31h2.71v2.71h-2.71V34.31z"/>
				<path class="st5" d="M58.61,43.31h-2.29v2.71h2.29V43.31z"/>
				<path class="st5" d="M63.61,43.31h-2.29v2.71h2.29V43.31z"/>
				<path class="st5" d="M43.76,34.31h2.71v2.71h-2.71V34.31z"/>
			</g>
		</g>
	</g>
	<g>
		<rect x="52" y="30.06" class="st5" width="36" height="3"/>
	</g>
	<g>
		<rect x="53" y="38.67" class="st5" width="36" height="3"/>
	</g>
</g>
</svg>
