<?xml version="1.0" encoding="utf-8"?>
<!-- Generator: Adobe Illustrator 25.2.0, SVG Export Plug-In . SVG Version: 6.00 Build 0)  -->
<svg version="1.1" id="Capa_1" xmlns="http://www.w3.org/2000/svg" xmlns:xlink="http://www.w3.org/1999/xlink" x="0px" y="0px"
	 viewBox="0 0 142 142" style="enable-background:new 0 0 142 142;" xml:space="preserve">
<style type="text/css">
	.st0{opacity:0.5;fill:#C756E2;}
	.st1{fill:#FFFFFF;}
	.st2{opacity:0.5;fill:#00FF00;}
	.st3{fill:#263F59;}
	.st4{opacity:0.5;fill:#FFFF00;}
	.st5{opacity:0.5;fill:#ED1E79;}
	.st6{opacity:0.5;fill:#00FFFF;}
</style>
<path class="st0" d="M110.16,49H40c-2.21,0-4-1.79-4-4v-4.79c0-2.69,2.18-4.88,4.88-4.88h69.21c1.61,0,2.92,1.31,2.92,2.92v7.91
	C113,47.73,111.73,49,110.16,49z"/>
<path class="st1" d="M97.44,76.77c10.32,0,18.68,8.36,18.68,18.68s-8.37,18.68-18.68,18.68c-10.32,0-18.68-8.36-18.68-18.68
	C78.77,85.14,87.13,76.78,97.44,76.77z"/>
<path class="st2" d="M101.44,83.77c10.32,0,18.68,8.36,18.68,18.68s-8.37,18.68-18.68,18.68c-10.32,0-18.68-8.36-18.68-18.68
	C82.77,92.14,91.13,83.78,101.44,83.77z"/>
<g id="surface1">
	<path class="st3" d="M37.08,108.39h37.37v-2.87H37.08c-2.38,0-4.31-1.93-4.31-4.31V37.96c0-2.38,1.93-4.31,4.31-4.31h63.24
		c2.38,0,4.31,1.93,4.31,4.31v33.06h2.87V37.96c0-3.97-3.22-7.18-7.19-7.19H37.08c-3.97,0-7.18,3.22-7.19,7.19v63.24
		C29.9,105.17,33.11,108.38,37.08,108.39z"/>
	<path class="st3" d="M35.64,36.53h2.87v2.87h-2.87V36.53z"/>
	<path class="st3" d="M41.39,36.53h2.87v2.87h-2.87V36.53z"/>
	<path class="st3" d="M47.14,36.53h2.87v2.87h-2.87V36.53z"/>
	<path class="st3" d="M35.64,42.27h66.11v2.87H35.64V42.27z"/>
	<path class="st3" d="M50.44,48.44l-3.65,3.65c-3.09-2.04-7.22-1.42-9.56,1.45c-2.34,2.87-2.13,7.04,0.49,9.66
		c2.62,2.62,6.79,2.83,9.66,0.49c2.87-2.34,3.49-6.47,1.45-9.56l3.65-3.65L50.44,48.44z M42.83,62.4c-2.38,0-4.31-1.93-4.31-4.31
		c0-2.38,1.93-4.31,4.31-4.31c0.64,0,1.27,0.15,1.85,0.43l-2.86,2.86l2.03,2.03l2.86-2.86c0.28,0.57,0.43,1.21,0.43,1.85
		C47.14,60.47,45.21,62.4,42.83,62.4z"/>
	<path class="st3" d="M54.33,53.77h24.43v2.87H54.33V53.77z"/>
	<path class="st3" d="M54.33,59.52h10.06v2.87H54.33V59.52z"/>
	<path class="st3" d="M67.26,59.52h20.12v2.87H67.26V59.52z"/>
	<path class="st3" d="M81.63,53.77H96v2.87H81.63V53.77z"/>
	<path class="st3" d="M50.44,65.69l-3.65,3.65c-3.09-2.04-7.22-1.42-9.56,1.45c-2.34,2.87-2.13,7.04,0.49,9.66
		c2.62,2.62,6.79,2.83,9.66,0.48c2.87-2.34,3.49-6.47,1.45-9.56l3.65-3.65L50.44,65.69z M42.83,79.64c-2.38,0-4.31-1.93-4.31-4.31
		c0-2.38,1.93-4.31,4.31-4.31c0.64,0,1.27,0.15,1.85,0.43l-2.86,2.86l2.03,2.03l2.86-2.86c0.28,0.58,0.43,1.21,0.43,1.85
		C47.14,77.71,45.21,79.64,42.83,79.64z"/>
	<path class="st3" d="M54.33,71.02h24.43v2.87H54.33V71.02z"/>
	<path class="st3" d="M54.33,76.77h10.06v2.87H54.33V76.77z"/>
	<path class="st3" d="M67.26,76.77h11.5v2.87h-11.5V76.77z"/>
	<path class="st3" d="M81.63,71.02h5.75v2.87h-5.75V71.02z"/>
	<path class="st3" d="M50.44,82.94l-3.65,3.65c-3.09-2.04-7.22-1.42-9.56,1.45c-2.34,2.87-2.13,7.04,0.49,9.66
		c2.62,2.62,6.79,2.83,9.66,0.48c2.87-2.34,3.49-6.47,1.45-9.56l3.65-3.65L50.44,82.94z M42.83,96.89c-2.38,0-4.31-1.93-4.31-4.31
		c0-2.38,1.93-4.31,4.31-4.31c0.64,0,1.27,0.15,1.85,0.43l-2.86,2.86l2.03,2.03l2.86-2.86c0.28,0.58,0.43,1.21,0.43,1.85
		C47.14,94.96,45.21,96.89,42.83,96.89z"/>
	<path class="st3" d="M54.33,88.27h18.68v2.87H54.33V88.27z"/>
	<path class="st3" d="M54.33,94.01h10.06v2.87H54.33V94.01z"/>
	<path class="st3" d="M67.26,94.01h5.75v2.87h-5.75V94.01z"/>
	<path class="st3" d="M97.44,117.01c11.91,0,21.56-9.65,21.56-21.56c0-11.91-9.65-21.56-21.56-21.56s-21.56,9.65-21.56,21.56
		C75.9,107.35,85.54,117,97.44,117.01z M97.44,76.77c10.32,0,18.68,8.36,18.68,18.68s-8.37,18.68-18.68,18.68
		c-10.32,0-18.68-8.36-18.68-18.68C78.77,85.14,87.13,76.78,97.44,76.77z"/>
	<path class="st3" d="M88.68,96.25l-2.57,1.28l2.87,5.75c0.21,0.41,0.6,0.7,1.06,0.78c0.07,0.01,0.15,0.02,0.22,0.02
		c0.38,0,0.75-0.15,1.02-0.42l17.25-17.25l-2.03-2.03l-15.84,15.84L88.68,96.25z"/>
</g>
<path class="st4" d="M42.83,62.4c-2.38,0-4.31-1.93-4.31-4.31c0-2.38,1.93-4.31,4.31-4.31c0.64,0,1.27,0.15,1.85,0.43l-2.86,2.86
	l2.03,2.03l2.86-2.86c0.28,0.57,0.43,1.21,0.43,1.85C47.14,60.47,45.21,62.4,42.83,62.4z"/>
<path class="st5" d="M42.83,79.4c-2.38,0-4.31-1.93-4.31-4.31c0-2.38,1.93-4.31,4.31-4.31c0.64,0,1.27,0.15,1.85,0.43l-2.86,2.86
	l2.03,2.03l2.86-2.86c0.28,0.57,0.43,1.21,0.43,1.85C47.14,77.47,45.21,79.4,42.83,79.4z"/>
<path class="st6" d="M42.83,96.4c-2.38,0-4.31-1.93-4.31-4.31c0-2.38,1.93-4.31,4.31-4.31c0.64,0,1.27,0.15,1.85,0.43l-2.86,2.86
	l2.03,2.03l2.86-2.86c0.28,0.57,0.43,1.21,0.43,1.85C47.14,94.47,45.21,96.4,42.83,96.4z"/>
</svg>
