<?xml version="1.0" encoding="utf-8"?>
<!-- Generator: Adobe Illustrator 25.2.0, SVG Export Plug-In . SVG Version: 6.00 Build 0)  -->
<svg version="1.1" id="Capa_1" xmlns="http://www.w3.org/2000/svg" xmlns:xlink="http://www.w3.org/1999/xlink" x="0px" y="0px"
	 viewBox="0 0 689.72 621.87" style="enable-background:new 0 0 689.72 621.87;" xml:space="preserve">
<style type="text/css">
	.st0{fill:#FFFFFF;}
	.st1{fill:url(#SVGID_1_);}
	.st2{fill:url(#SVGID_2_);}
	.st3{fill:url(#SVGID_3_);}
	.st4{fill:url(#SVGID_4_);}
	.st5{fill:url(#SVGID_5_);}
	.st6{fill:url(#SVGID_6_);}
	.st7{fill:url(#SVGID_7_);}
	.st8{fill:url(#SVGID_8_);}
	.st9{fill:url(#SVGID_9_);}
	.st10{fill:url(#SVGID_10_);}
</style>
<g>
	<path d="M689.72,56.59c-0.07-0.17-0.14-0.33-0.22-0.5l-0.13-0.3c-0.52-1.13-1.12-2.22-1.79-3.26l0,0.01l-0.14-0.21
		c-0.33-0.49-0.67-0.98-0.98-1.38l-0.21-0.27c-0.3-0.38-0.61-0.76-0.93-1.12c-0.1-0.12-0.2-0.23-0.25-0.29
		c-0.37-0.42-0.76-0.82-1.19-1.24l-0.29-0.27c-0.34-0.33-0.69-0.64-1.05-0.95l-0.33-0.28c-0.42-0.34-0.85-0.67-1.33-1.02l-0.28-0.2
		c-0.96-0.68-1.98-1.29-3.09-1.86l-0.35-0.18c-0.58-0.28-1.16-0.55-1.71-0.77L573.75,1.95c-5.91-2.42-12.49-2.6-18.53-0.5
		L345.09,74.52L138.29,1.5c-5.86-2.07-12.28-1.98-18.09,0.24L17.28,41.15c-1.34,0.49-2.65,1.1-3.9,1.81l-0.22,0.13
		c-0.52,0.3-1.03,0.62-1.53,0.96l-0.29,0.2c-0.4,0.28-0.8,0.57-1.23,0.91l-0.25,0.2c-0.44,0.35-0.87,0.72-1.3,1.12
		c-0.11,0.1-0.21,0.2-0.27,0.26c-0.32,0.31-0.64,0.62-0.99,0.99l-0.29,0.31c-0.38,0.42-0.75,0.85-1.17,1.37L5.69,49.6
		c-0.75,0.95-1.43,1.97-2.01,2.96l-0.12,0.22c-0.59,1.04-1.12,2.13-1.57,3.27l-0.1,0.25c-0.46,1.19-0.83,2.42-1.11,3.66l-0.04,0.17
		c-0.14,0.62-0.25,1.24-0.34,1.85l-0.03,0.25c-0.07,0.53-0.13,1.07-0.17,1.62L0.17,64.2c-0.03,0.51-0.05,1.02-0.05,1.53L0,536.85
		c0,9.13,4.63,17.46,12.39,22.27l94.43,58.53l0.46,0.35l0.58,0.29c0.18,0.11,0.37,0.21,0.55,0.31l0.62,0.33
		c0.38,0.2,0.77,0.39,1.17,0.57l0.55,0.24c1.02,0.44,2.08,0.81,3.15,1.12l0.18,0.05c1.1,0.3,2.22,0.54,3.35,0.7l0.21,0.03
		c0.46,0.06,0.92,0.11,1.32,0.14c0.18,0.02,0.36,0.03,0.49,0.04c0.53,0.03,1.05,0.05,1.64,0.05c0.48,0,0.96-0.01,1.39-0.04
		c0.16-0.01,0.32-0.02,0.39-0.03c0.37-0.03,0.73-0.06,1.09-0.1l0.34-0.04c0.39-0.05,0.78-0.1,1.16-0.17l0.29-0.05
		c0.32-0.06,0.63-0.12,0.94-0.19l0.11-0.02l215.24-50.9l217.57,50.84c0.21,0.05,0.42,0.09,0.65,0.14l0.05,0.01
		c0.2,0.04,0.4,0.08,0.56,0.11c0.31,0.06,0.61,0.1,0.87,0.14c0.24,0.04,0.48,0.07,0.69,0.1c0.27,0.03,0.53,0.06,0.8,0.08l0.11,0.01
		c0.21,0.02,0.42,0.04,0.72,0.06c0.17,0.01,0.35,0.02,0.53,0.02l0.06,0c0.31,0.01,0.63,0.02,0.94,0.02c0.65,0,1.32-0.03,2.15-0.09
		l0.19-0.02c0.61-0.05,1.21-0.13,1.82-0.23l0.34-0.06c0.54-0.09,1.08-0.21,1.67-0.35l0.37-0.09c1.36-0.35,2.69-0.81,3.93-1.36
		c0.18-0.08,0.37-0.17,0.56-0.26c0.42-0.19,0.84-0.4,1.27-0.63c0.18-0.1,0.36-0.2,0.58-0.32c0.21-0.11,0.42-0.23,0.66-0.38
		l97.31-58.82c7.22-4.37,12.02-11.97,13.17-20.88l0.1-0.79V56.59z M675.17,56.98L675.17,56.98L675.17,56.98L675.17,56.98z
		 M17.78,55.03L17.78,55.03L17.78,55.03L17.78,55.03z M120.03,609.33L120.03,609.33L120.03,609.33L120.03,609.33z"/>
	<g>
		<path class="st0" d="M661.6,66.74l-97.2-38.72l-219.97,76.05c-0.29,0.1-0.6,0.1-0.89,0l-216.16-76L26.6,66.68l-0.12,470.28
			l94.03,58.18l0.14-0.03l222.44-52.67l0.09,0.02l225.36,52.65l93.19-58.14L661.6,66.74z M460.5,243.58l-0.9,144.91l0,0.19
			l-0.07,1.58L344.04,358.9l-115.43,30.72l-0.02-0.93l0-0.22l-0.9-145.66l0.5,0.16l116.42,38.33l115.9-38.25L460.5,243.58z"/>
	</g>
	<linearGradient id="SVGID_1_" gradientUnits="userSpaceOnUse" x1="26.2236" y1="103.5637" x2="662.0482" y2="103.5637">
		<stop  offset="7.672017e-07" style="stop-color:#A5FFFF"/>
		<stop  offset="0.1659" style="stop-color:#1DE3F8"/>
		<stop  offset="0.5771" style="stop-color:#B153D1"/>
		<stop  offset="0.9977" style="stop-color:#3A006A"/>
	</linearGradient>
	<path class="st1" d="M564.41,27.63L344.3,103.72c-0.21,0.07-0.43,0.07-0.64,0L127.37,27.67L26.22,66.43L344.6,179.5L662.05,66.52
		L564.41,27.63z"/>
	<linearGradient id="SVGID_2_" gradientUnits="userSpaceOnUse" x1="120.7002" y1="401.5047" x2="343.3174" y2="409.9166">
		<stop  offset="0" style="stop-color:#B153D1"/>
		<stop  offset="0.39" style="stop-color:#7D2FA4"/>
		<stop  offset="0.7974" style="stop-color:#4D0D7A"/>
		<stop  offset="1" style="stop-color:#3A006A"/>
	</linearGradient>
	<path class="st2" d="M229.8,463.88c-0.04,0.01-0.07,0.02-0.1,0.02c0,0-0.22-0.02-0.27-0.23l0.01-0.34l-0.47-74.19l-0.01-0.45l0-0.2
		l-0.9-145.63L120.6,207.5v388l222.49-52.69l2.01-109.9L229.8,463.88z"/>
	<linearGradient id="SVGID_3_" gradientUnits="userSpaceOnUse" x1="343.0918" y1="401.688" x2="568.6006" y2="401.688">
		<stop  offset="1.763498e-06" style="stop-color:#3A006A"/>
		<stop  offset="0.9977" style="stop-color:#3A006A"/>
	</linearGradient>
	<path class="st3" d="M458.39,463.88c0.04,0.01,0.07,0.02,0.1,0.02c0,0,0.22-0.02,0.27-0.23l-0.01-0.34l0.47-74.19l0.01-0.45l0-0.2
		l0.9-145.63l106.77-34.98l1.7,387.63l-225.51-52.69v-109.9L458.39,463.88z"/>
	<linearGradient id="SVGID_4_" gradientUnits="userSpaceOnUse" x1="287.714" y1="359.704" x2="568.8539" y2="401.834">
		<stop  offset="1.353259e-06" style="stop-color:#00FFFF;stop-opacity:0.2"/>
		<stop  offset="0.2226" style="stop-color:#0FBBD7;stop-opacity:0.3784"/>
		<stop  offset="0.504" style="stop-color:#216CA9;stop-opacity:0.6041"/>
		<stop  offset="0.7362" style="stop-color:#2F3287;stop-opacity:0.7903"/>
		<stop  offset="0.9068" style="stop-color:#370E72;stop-opacity:0.9271"/>
		<stop  offset="0.9977" style="stop-color:#3A006A"/>
	</linearGradient>
	<path class="st4" d="M458.39,463.88c0.04,0.01,0.07,0.02,0.1,0.02c0,0,0.22-0.02,0.27-0.23l-0.01-0.34l0.47-74.19l0.01-0.45l0-0.2
		l0.9-145.22l107.66-35.3l0.81,387.53l-225.51-52.69v-109.9L458.39,463.88z"/>
	<linearGradient id="SVGID_5_" gradientUnits="userSpaceOnUse" x1="26.0986" y1="331.0732" x2="344.6727" y2="331.0732">
		<stop  offset="0" style="stop-color:#ADFFFF"/>
		<stop  offset="5.932331e-03" style="stop-color:#A9FFFF"/>
		<stop  offset="0.073" style="stop-color:#82FFFF"/>
		<stop  offset="0.1459" style="stop-color:#5FFFFF"/>
		<stop  offset="0.2256" style="stop-color:#41FFFF"/>
		<stop  offset="0.3134" style="stop-color:#29FFFF"/>
		<stop  offset="0.4126" style="stop-color:#17FFFF"/>
		<stop  offset="0.5297" style="stop-color:#0AFFFF"/>
		<stop  offset="0.6821" style="stop-color:#02FFFF"/>
		<stop  offset="1" style="stop-color:#00FFFF"/>
	</linearGradient>
	<path class="st5" d="M26.22,66.43L26.1,537.17l94.63,58.55l0.2-387.37c0-0.06,0.03-0.12,0.08-0.15c0.06-0.04,0.14-0.06,0.21-0.03
		L344.6,281.7l0.07-102.84L26.22,66.43z"/>
	<linearGradient id="SVGID_6_" gradientUnits="userSpaceOnUse" x1="344.6006" y1="330.9638" x2="662.1006" y2="330.9638">
		<stop  offset="0.0363" style="stop-color:#7FFFFF"/>
		<stop  offset="0.6352" style="stop-color:#9741BA"/>
		<stop  offset="0.9977" style="stop-color:#3A006A"/>
	</linearGradient>
	<path class="st6" d="M661.98,66.43l0.12,470.75l-93.5,58.33l-0.89-387.15c0-0.06-0.23-0.21-0.3-0.19L344.6,281.7V178.89
		L661.98,66.43z"/>
	<linearGradient id="SVGID_7_" gradientUnits="userSpaceOnUse" x1="340.0048" y1="330.9638" x2="657.5048" y2="330.9638">
		<stop  offset="2.040543e-06" style="stop-color:#89FFFF"/>
		<stop  offset="0.1123" style="stop-color:#00FFFF;stop-opacity:0.6"/>
		<stop  offset="0.3877" style="stop-color:#778CE0;stop-opacity:0"/>
	</linearGradient>
	<path class="st7" d="M661.98,66.43l0.12,470.75l-93.5,58.33l-0.89-387.15c0-0.06-0.03-0.12-0.08-0.15
		c-0.06-0.04-0.14-0.06-0.21-0.03L344.6,281.7V178.89L661.98,66.43z"/>
	<linearGradient id="SVGID_8_" gradientUnits="userSpaceOnUse" x1="241.6817" y1="381.9211" x2="452.787" y2="474.5808">
		<stop  offset="0" style="stop-color:#B153D1"/>
		<stop  offset="0.3101" style="stop-color:#8333A9"/>
		<stop  offset="0.8279" style="stop-color:#3A006A"/>
	</linearGradient>
	<path class="st8" d="M344.04,358.51l-115.07,30.62l0.41,75l113.71-30.62l0,0l115.7,30.53l0.39-74.28L344.04,358.51z M343.25,433.09
		l-0.01,0L343.25,433.09L343.25,433.09z"/>
	
		<radialGradient id="SVGID_9_" cx="569.7359" cy="388.5809" r="22.3621" gradientTransform="matrix(1 -7.600538e-03 0.0718 9.4453 -27.8804 -3277.3564)" gradientUnits="userSpaceOnUse">
		<stop  offset="0" style="stop-color:#A153D1"/>
		<stop  offset="0.0347" style="stop-color:#A253D1;stop-opacity:0.9622"/>
		<stop  offset="0.4566" style="stop-color:#AD53D1;stop-opacity:0.5021"/>
		<stop  offset="0.917" style="stop-color:#B153D1;stop-opacity:0"/>
	</radialGradient>
	<path class="st9" d="M661.98,66.43l0.12,470.75l-93.5,58.33c0,0-0.92-387.27-0.97-387.31c-0.06-0.04-0.21-107.99-0.21-107.99
		L661.98,66.43z"/>
	<linearGradient id="SVGID_10_" gradientUnits="userSpaceOnUse" x1="121.7106" y1="401.5165" x2="344.4648" y2="404.6355">
		<stop  offset="1.331947e-07" style="stop-color:#79FFFF"/>
		<stop  offset="0.0477" style="stop-color:#79ECFA;stop-opacity:0.9523"/>
		<stop  offset="0.14" style="stop-color:#78CFF2;stop-opacity:0.86"/>
		<stop  offset="0.2426" style="stop-color:#78B6EB;stop-opacity:0.7574"/>
		<stop  offset="0.3575" style="stop-color:#77A3E6;stop-opacity:0.6425"/>
		<stop  offset="0.4918" style="stop-color:#7796E3;stop-opacity:0.5082"/>
		<stop  offset="0.6633" style="stop-color:#778EE1;stop-opacity:0.3367"/>
		<stop  offset="1" style="stop-color:#778CE0;stop-opacity:0"/>
	</linearGradient>
	<path class="st10" d="M229.8,463.88c-0.04,0.01-0.07,0.02-0.1,0.02c0,0-0.22-0.02-0.27-0.23l0.01-0.34l-0.47-74.19l-0.01-0.45
		l0-0.2l-0.9-145.63L120.6,207.5v388l222.49-52.69V433.52L229.8,463.88z"/>
</g>
</svg>
