<?xml version="1.0" encoding="utf-8"?>
<!-- Generator: Adobe Illustrator 25.2.0, SVG Export Plug-In . SVG Version: 6.00 Build 0)  -->
<svg version="1.1" id="Capa_1" xmlns="http://www.w3.org/2000/svg" xmlns:xlink="http://www.w3.org/1999/xlink" x="0px" y="0px"
	 viewBox="0 0 72.86 64.79" style="enable-background:new 0 0 72.86 64.79;" xml:space="preserve">
<style type="text/css">
	.st0{fill:url(#SVGID_1_);}
</style>
<g>
	<linearGradient id="SVGID_1_" gradientUnits="userSpaceOnUse" x1="12.153" y1="12.5099" x2="69.4256" y2="57.0894">
		<stop  offset="2.220885e-07" style="stop-color:#00FFFF"/>
		<stop  offset="0.4743" style="stop-color:#B153D1"/>
		<stop  offset="0.9977" style="stop-color:#3A006A"/>
	</linearGradient>
	<path class="st0" d="M72.86,5.81C72.86,5.81,72.86,5.81,72.86,5.81c0-0.04-0.01-0.07-0.01-0.1c0-0.01,0-0.01,0-0.02
		c-0.01-0.07-0.02-0.14-0.04-0.21c0,0,0-0.01,0-0.01c-0.02-0.07-0.05-0.14-0.08-0.2c0,0,0,0,0,0c-0.03-0.06-0.06-0.13-0.1-0.19
		c0,0,0-0.01-0.01-0.01c-0.02-0.03-0.04-0.06-0.06-0.08c0,0-0.01-0.01-0.01-0.01c-0.02-0.02-0.04-0.05-0.06-0.07
		c0,0-0.01-0.01-0.01-0.01c-0.02-0.02-0.04-0.05-0.07-0.07c-0.01-0.01-0.01-0.01-0.02-0.02c-0.02-0.02-0.04-0.04-0.06-0.06
		c0,0-0.01-0.01-0.01-0.01c-0.03-0.02-0.05-0.04-0.08-0.06c-0.01,0-0.01-0.01-0.02-0.01c-0.06-0.04-0.12-0.08-0.18-0.11
		c0,0,0,0-0.01,0c-0.04-0.02-0.07-0.03-0.11-0.05l-10.86-4.4c-0.34-0.14-0.72-0.15-1.06-0.03L36.48,8.17L13.34,0.08
		c-0.34-0.12-0.7-0.11-1.04,0.01L1,4.38C0.92,4.41,0.85,4.45,0.77,4.49c0,0-0.01,0-0.01,0.01C0.73,4.51,0.7,4.53,0.67,4.55
		c0,0,0,0-0.01,0C0.64,4.57,0.61,4.59,0.59,4.61c-0.01,0-0.01,0.01-0.02,0.01C0.55,4.64,0.52,4.66,0.5,4.69
		C0.49,4.69,0.49,4.7,0.48,4.7C0.46,4.72,0.44,4.74,0.42,4.76c0,0-0.01,0.01-0.01,0.01C0.39,4.8,0.37,4.82,0.35,4.85
		c0,0.01-0.01,0.01-0.01,0.02C0.29,4.92,0.25,4.98,0.22,5.03c0,0,0,0.01-0.01,0.01C0.17,5.11,0.14,5.17,0.12,5.24c0,0,0,0,0,0
		C0.09,5.31,0.07,5.38,0.05,5.45c0,0,0,0.01,0,0.01c-0.01,0.03-0.01,0.07-0.02,0.1c0,0,0,0.01,0,0.01c0,0.03-0.01,0.06-0.01,0.09
		c0,0.01,0,0.01,0,0.02c0,0.03,0,0.06,0,0.09L0,56.92c0,0.51,0.27,0.99,0.71,1.26l10.41,6.39c0,0,0,0,0,0
		c0.03,0.02,0.06,0.03,0.09,0.05c0,0,0,0,0,0c0.03,0.02,0.06,0.03,0.09,0.04c0,0,0,0,0,0c0.06,0.03,0.13,0.05,0.19,0.07c0,0,0,0,0,0
		c0.06,0.02,0.13,0.03,0.2,0.04c0,0,0.01,0,0.01,0c0.03,0,0.05,0.01,0.08,0.01c0.01,0,0.01,0,0.02,0c0.03,0,0.06,0,0.09,0
		c0,0,0,0,0,0c0.03,0,0.06,0,0.08,0c0.01,0,0.01,0,0.02,0c0.02,0,0.04,0,0.07-0.01c0.01,0,0.01,0,0.02,0c0.02,0,0.05-0.01,0.07-0.01
		c0,0,0.01,0,0.01,0c0.03,0,0.05-0.01,0.07-0.02c0,0,0,0,0,0l0.01,0c0.01,0,0.01,0,0.02,0l23.86-5.58l24.19,5.59
		c0.01,0,0.02,0,0.03,0.01c0.01,0,0.03,0.01,0.04,0.01c0.02,0,0.03,0.01,0.05,0.01c0.01,0,0.03,0,0.04,0.01c0.02,0,0.03,0,0.05,0
		c0.01,0,0.03,0,0.04,0c0.01,0,0.02,0,0.03,0c0.02,0,0.04,0,0.06,0c0.04,0,0.08,0,0.12-0.01c0,0,0.01,0,0.01,0
		c0.03,0,0.07-0.01,0.1-0.01c0.01,0,0.01,0,0.02,0c0.03-0.01,0.07-0.01,0.1-0.02c0,0,0.01,0,0.01,0c0.08-0.02,0.15-0.05,0.23-0.08
		c0.01,0,0.02-0.01,0.02-0.01c0.03-0.01,0.05-0.02,0.08-0.04c0.01-0.01,0.03-0.01,0.04-0.02c0.01-0.01,0.02-0.01,0.03-0.02
		l10.68-6.39c0.45-0.27,0.73-0.75,0.73-1.27V5.89C72.86,5.86,72.86,5.84,72.86,5.81z M12.87,3.07l23.12,8.08
		c0.32,0.11,0.67,0.11,0.99,0l23.47-8.07l6.68,2.71L36.48,16.43L5.87,5.72L12.87,3.07z M59.27,23.42l-0.09,38.02l-21.28-4.92v-8.96
		l10.74,2.86c0.45,0.12,0.93,0.03,1.3-0.25c0.37-0.28,0.59-0.71,0.59-1.17l0.19-22.84L59.27,23.42z M25.28,47.04L25.25,42
		l11.24-2.98l11.1,2.99l-0.04,5.04L36.8,44.18c-0.06-0.02-0.13-0.03-0.19-0.04c-0.01,0-0.01,0-0.02,0c-0.03,0-0.05-0.01-0.08-0.01
		c-0.01,0-0.01,0-0.02,0c-0.03,0-0.06,0-0.09,0c-0.03,0-0.06,0-0.09,0c-0.01,0-0.01,0-0.02,0c-0.03,0-0.05,0-0.08,0.01
		c-0.01,0-0.01,0-0.02,0c-0.07,0.01-0.13,0.02-0.19,0.04L25.28,47.04z M47.62,38.93l-10.73-2.89c-0.26-0.07-0.53-0.07-0.78,0
		l-10.87,2.88l-0.07-11.84l10.78,3.51c0.3,0.1,0.63,0.1,0.93,0l10.85-3.48L47.62,38.93z M3.02,7.88l31.96,11.17v8.1L12.41,19.8
		c-0.46-0.15-0.96-0.07-1.35,0.21c-0.39,0.28-0.62,0.73-0.62,1.2l-0.02,39.42l-7.41-4.54L3.02,7.88z M13.42,61.43l0.02-38.16
		l8.71,2.84l0.09,14.71c0,0.03,0,0.06,0,0.09l0.05,8.03c0,0,0,0.01,0,0.01c0,0.14,0.01,0.28,0.05,0.42c0.18,0.66,0.79,1.1,1.45,1.1
		c0.13,0,0.26-0.02,0.39-0.05l10.72-2.86v8.85L13.42,61.43z M62.19,60.67l0.1-39.29c0-0.48-0.23-0.92-0.62-1.2
		c-0.39-0.28-0.89-0.36-1.35-0.21l-11.25,3.61c-0.21,0.02-0.4,0.09-0.57,0.18l-10.51,3.37v-8.06L69.85,7.99v48.1L62.19,60.67z"/>
</g>
</svg>
