<?xml version="1.0" encoding="utf-8"?>
<!-- Generator: Adobe Illustrator 25.2.0, SVG Export Plug-In . SVG Version: 6.00 Build 0)  -->
<svg version="1.1" id="Capa_1" xmlns="http://www.w3.org/2000/svg" xmlns:xlink="http://www.w3.org/1999/xlink" x="0px" y="0px"
	 viewBox="0 0 648.53 113.11" style="enable-background:new 0 0 648.53 113.11;" xml:space="preserve">
<style type="text/css">
	.st0{fill:#FFFFFF;}
	.st1{fill:url(#SVGID_1_);}
</style>
<g>
	<g>
		<polygon class="st0" points="196.51,38.74 180.79,38.74 180.79,73.47 188,73.47 188,44.36 191.81,44.36 191.92,44.54 
			209.55,73.47 216.22,73.47 233.27,44.36 237.78,44.36 237.78,73.47 244.99,73.47 244.99,38.74 229.27,38.74 212.89,67.45 		"/>
		<polygon class="st0" points="334.31,72.99 340.91,72.99 340.91,44.36 359.27,44.36 359.27,39.22 315.94,39.22 315.94,44.36 
			334.31,44.36 		"/>
		<path class="st0" d="M385.64,38.74l-19.92,34.73h8.19l3.83-7.12h29.74l4.06,7.12h8.15l-20.22-34.73H385.64z M380.55,61.38
			l9.01-17.02h5.22l10.01,17.02H380.55z"/>
		<polygon class="st0" points="492.23,39.22 485.63,39.22 485.63,72.99 521.84,72.99 521.84,67.14 492.23,67.14 		"/>
		<path class="st0" d="M575.29,66.55c-1.37,1.37-3.94,1.9-9.18,1.9h-12.95c-5.32,0-7.92-0.53-9.26-1.88
			c-1.31-1.32-1.3-3.36-1.28-6.18l0.01-1.18v-20h-6.6v22.67c0,8.2,2.85,11.55,9.83,11.55h27.55c6.98,0,9.83-3.35,9.83-11.55V39.22
			h-6.6l0,20.81C576.66,63.13,576.67,65.18,575.29,66.55z"/>
		<polygon class="st0" points="648.53,38.85 639.22,38.85 624.38,53.05 621.26,53.04 621.15,52.94 606.43,38.85 597.11,38.85 
			616,56.79 598.18,73.47 607.61,73.47 620.9,60.24 624.7,60.2 638.03,73.47 647.46,73.47 629.64,56.79 		"/>
		<path class="st0" d="M271.8,39.16c-3.81,0.03-6.69,0.82-8.57,2.34c-1.71,1.44-2.51,3.29-2.51,5.82v18.01
			c0,2.53,0.8,4.38,2.51,5.83c1.87,1.51,4.75,2.3,8.56,2.33h27.96c0.06,0,0.12,0,0.17-0.01l0.44-0.02c0.06,0,0.12,0,0.18-0.01v-5.17
			h-25.58c-1.6,0-5.36,0-6.82-3.1c-0.26-0.65-0.44-1.36-0.55-2.11c-0.03-0.26-0.05-0.47-0.05-0.7l0-3.63h32.99v-4.55h-32.99v-3.87
			c0.09-5.96,5.41-5.96,7.42-5.96h25.58V39.2c-0.27-0.02-0.53-0.03-0.79-0.03H271.8z"/>
		<path class="st0" d="M434.42,46.81l0,26.18h6.83V59.71h28.9v-5.03h-28.9v-4.35c0-2.55,0.42-4.14,1.34-5.03
			c1.09-1.06,2.73-1.01,4.65-0.96c0.46,0.01,0.94,0.03,1.43,0.03h21.48v-5.2H445.5c-3.8,0.03-6.68,0.82-8.55,2.33
			C435.34,42.83,434.54,44.52,434.42,46.81z"/>
	</g>
	<linearGradient id="SVGID_1_" gradientUnits="userSpaceOnUse" x1="30.7115" y1="24.182" x2="121.4658" y2="110.2745">
		<stop  offset="1.038919e-06" style="stop-color:#00FFFF"/>
		<stop  offset="0.4743" style="stop-color:#B153D1"/>
		<stop  offset="0.9977" style="stop-color:#3A006A"/>
	</linearGradient>
	<path class="st1" d="M125.01,8.88c-0.01-0.02-0.04-0.1-0.07-0.17l-0.57-0.67l-0.32-0.17l-18.94-7.75
		c-0.37-0.15-0.79-0.16-1.16-0.03L62.64,14.46L21.96,0.09c-0.37-0.13-0.77-0.12-1.13,0.02L1.12,7.66c-0.1,0.04-0.18,0.07-0.26,0.12
		L0.43,8.14l-0.22,0.3C0.2,8.47,0.16,8.55,0.13,8.62L0.02,9.21L0,99.34c0,0.56,0.3,1.1,0.78,1.39l18.49,11.48l-0.2,0.2l0.02,0.7h0
		l0.26-0.95l0.34,0.07l0.49-0.05l41.89-9.9l42.69,9.95l0.29-0.01c0.28-0.07,0.36-0.09,0.44-0.12l18.81-11.36
		c0.49-0.3,0.79-0.83,0.79-1.4V9.4l-0.02-0.2L125.01,8.88z M21.44,3.38l40.65,14.36c0.35,0.13,0.73,0.13,1.08,0l41.28-14.35
		l14.39,5.89l-56.2,19.73L6.41,9.14L21.44,3.38z M63,52.01l20.21-6.55l-0.19,23.45l-19.94-5.42c-0.28-0.08-0.58-0.07-0.85,0
		l-20.19,5.4L41.9,45.4l20.09,6.61C62.32,52.12,62.67,52.12,63,52.01z M18.87,35.08c-0.42,0.31-0.68,0.8-0.68,1.33l-0.03,71.24
		L3.28,98.43L3.3,11.52L61,31.91v16.33L20.35,34.85C19.85,34.69,19.3,34.77,18.87,35.08z M60.86,99.2l-39.43,9.32l0.03-69.84
		l17.14,5.64l0.25,40.94c0,0.21,0.02,0.36,0.06,0.51c0.23,0.85,1.19,1.37,2,1.16l19.94-5.38V99.2z M62.56,77.79l-0.21-0.01
		l-0.28,0.05l-19.94,5.38l-0.07-10.93l20.59-5.51L83,72.31l-0.09,10.9l-20.28-5.44L62.56,77.79z M103.2,108.53L64.14,99.4V81.55
		l19.97,5.38c0.49,0.13,1.02,0.03,1.42-0.28c0.4-0.3,0.64-0.79,0.65-1.29l0.33-40.95l16.86-5.47L103.2,108.53z M121.82,98.41
		l-15.33,9.27l0.17-70.99c0-0.52-0.25-1.02-0.67-1.33c-0.43-0.31-0.98-0.4-1.47-0.24l-19.63,6.36c-0.42,0.07-0.62,0.13-0.81,0.24
		l-19.8,6.43V31.91l57.54-20.2V98.41z"/>
</g>
</svg>
