<?xml version="1.0" encoding="utf-8"?>
<!-- Generator: Adobe Illustrator 25.2.0, SVG Export Plug-In . SVG Version: 6.00 Build 0)  -->
<svg version="1.1" id="Capa_1" xmlns="http://www.w3.org/2000/svg" xmlns:xlink="http://www.w3.org/1999/xlink" x="0px" y="0px"
	 viewBox="0 0 141.17 10.49" style="enable-background:new 0 0 141.17 10.49;" xml:space="preserve">
<style type="text/css">
	.st0{fill:#FFFFFF;}
</style>
<path class="st0" d="M9.69,8.67L14.63,0h4.74v10.48H17.2V1.7h-1.36l-5.15,8.79H8.68L3.36,1.75L3.33,1.7H2.17v8.79H0V0h4.74
	L9.69,8.67z M46.33,10.34h1.99V1.7h5.54V0.14H40.79V1.7h5.54V10.34z M66,0l6.1,10.48h-2.46l-1.23-2.15h-8.98l-1.16,2.15h-2.47
	L61.83,0H66z M67.61,6.83L64.58,1.7h-1.57l-2.72,5.14H67.61z M94,0.14H92v10.19h10.93V8.57H94V0.14z M119.07,8.39
	c-0.41,0.41-1.19,0.57-2.77,0.57h-3.91c-1.61,0-2.39-0.16-2.8-0.57c-0.4-0.4-0.39-1.01-0.39-1.86l0-0.36V0.14h-1.99v6.84
	c0,2.48,0.86,3.49,2.97,3.49h8.32c2.11,0,2.97-1.01,2.97-3.49V0.14h-1.99l0,6.28C119.48,7.36,119.48,7.98,119.07,8.39z M141.17,0.03
	h-2.81l-4.48,4.29l-0.94,0l-0.03-0.03l-4.45-4.25h-2.81l5.7,5.41l-5.38,5.03h2.85l4.01-3.99l1.15-0.01l4.02,4h2.85l-5.38-5.03
	L141.17,0.03z M27.47,0.13c-1.15,0.01-2.02,0.25-2.59,0.71c-0.52,0.43-0.76,0.99-0.76,1.76v5.44c0,0.76,0.24,1.32,0.76,1.76
	c0.56,0.46,1.43,0.69,2.58,0.7h8.44c0.02,0,0.03,0,0.05,0l0.13-0.01c0.02,0,0.04,0,0.05,0V8.92h-7.72c-0.48,0-1.62,0-2.06-0.94
	c-0.08-0.2-0.13-0.41-0.16-0.64c-0.01-0.08-0.01-0.14-0.02-0.21l0-1.09h9.96V4.66h-9.96V3.5c0.03-1.8,1.63-1.8,2.24-1.8h7.72V0.14
	c-0.08-0.01-0.16-0.01-0.24-0.01H27.47z M76.55,2.43l0,7.9h2.06V6.33h8.72V4.81h-8.72V3.5c0-0.77,0.13-1.25,0.4-1.52
	c0.33-0.32,0.83-0.3,1.4-0.29c0.14,0,0.28,0.01,0.43,0.01h6.48V0.13h-7.44c-1.15,0.01-2.02,0.25-2.58,0.7
	C76.83,1.23,76.58,1.74,76.55,2.43z"/>
</svg>
