<?xml version="1.0" encoding="utf-8"?>
<!-- Generator: Adobe Illustrator 25.2.0, SVG Export Plug-In . SVG Version: 6.00 Build 0)  -->
<svg version="1.1" id="Capa_1" xmlns="http://www.w3.org/2000/svg" xmlns:xlink="http://www.w3.org/1999/xlink" x="0px" y="0px"
	 viewBox="0 0 82.28 82.28" style="enable-background:new 0 0 82.28 82.28;" xml:space="preserve">
<style type="text/css">
	.st0{fill:#C756E2;}
	.st1{fill:#FFFFFF;}
</style>
<path class="st1" d="M25.45,0H10.58C4.75,0,0,4.75,0,10.58v14.86c0,5.84,4.75,10.58,10.58,10.58h14.86
	c5.84,0,10.58-4.75,10.58-10.58V10.58C36.03,4.75,31.28,0,25.45,0z M28.63,25.45c0,1.75-1.43,3.18-3.18,3.18H10.58
	c-1.75,0-3.18-1.43-3.18-3.18V10.58c0-1.75,1.43-3.18,3.18-3.18h14.86c1.75,0,3.18,1.43,3.18,3.18V25.45z M71.69,0H56.83
	c-5.84,0-10.58,4.75-10.58,10.58v14.86c0,5.84,4.75,10.58,10.58,10.58h14.86c5.84,0,10.58-4.75,10.58-10.58V10.58
	C82.28,4.75,77.53,0,71.69,0z M74.87,10.58v14.86c0,1.75-1.43,3.18-3.18,3.18H56.83c-1.75,0-3.18-1.43-3.18-3.18V10.58
	c0-1.75,1.43-3.18,3.18-3.18h14.86C73.45,7.4,74.87,8.83,74.87,10.58z M82.12,63.78c0,9.41-7.65,17.06-17.06,17.06
	s-17.06-7.65-17.06-17.06s7.65-17.06,17.06-17.06S82.12,54.37,82.12,63.78z M25.45,46.24H10.58C4.75,46.24,0,50.99,0,56.83v14.86
	c0,5.84,4.75,10.58,10.58,10.58h14.86c5.84,0,10.58-4.75,10.58-10.58V56.83C36.03,50.99,31.28,46.24,25.45,46.24z M28.63,71.69
	c0,1.75-1.43,3.18-3.18,3.18H10.58c-1.75,0-3.18-1.43-3.18-3.18V56.83c0-1.75,1.43-3.18,3.18-3.18h14.86c1.75,0,3.18,1.43,3.18,3.18
	V71.69z"/>
</svg>
