<?xml version="1.0" encoding="UTF-8"?>
<!DOCTYPE svg PUBLIC "-//W3C//DTD SVG 1.1//EN" "http://www.w3.org/Graphics/SVG/1.1/DTD/svg11.dtd">
<!-- Creator: CorelDRAW 2017 -->
<svg xmlns="http://www.w3.org/2000/svg" xml:space="preserve" width="0.35in" height="0.35in" version="1.1" style="shape-rendering:geometricPrecision; text-rendering:geometricPrecision; image-rendering:optimizeQuality; fill-rule:evenodd; clip-rule:evenodd"
viewBox="0 0 350 350"
xmlns:xlink="http://www.w3.org/1999/xlink">
<defs>
	<style type="text/css">
		<![CDATA[
		.fil0 {fill:none}
		.fil1 {fill:#000000;fill-opacity:1}
		]]>
	</style>
</defs>
<g id="Layer_x0020_1">
	<metadata id="CorelCorpID_0Corel-Layer"/>
	<rect class="fil0" width="350" height="350"/>
	<path class="fil1" d="M22.29 122.5c-4.17,2.59 -7.6,9.69 -9.87,18.66 -2.13,8.43 -3.4,18.96 -3.4,30.13 0,11.21 1.28,21.81 3.4,30.29 2.28,9.08 5.67,16.26 9.84,18.99 4.1,2.7 9.18,-5.11 13.91,-15.73 5.28,-11.85 10,-26.81 11.84,-32.86 -1.77,-5.91 -6.27,-20.38 -11.34,-32.27 -0.7,2.35 -1.37,4.67 -2.03,6.96 2.9,7.22 5.9,16.08 8.64,25.23 -3.73,12.33 -7.91,24.01 -11.74,31.86 -3.51,7.2 -6.77,11.23 -9.27,9.81 -3.57,-2.03 -6.6,-8.04 -8.6,-15.81 -1.89,-7.34 -3.03,-16.6 -3.03,-26.45 0.03,-9.82 1.12,-19.04 3.03,-26.31 2.02,-7.7 5.04,-13.61 8.64,-15.51 2.1,-1.1 4.67,1.52 7.47,6.55 0.57,-2.2 1.13,-4.43 1.77,-6.72 -3.27,-5.49 -6.44,-8.54 -9.24,-6.83zm89.07 -55.36c-16.14,10.02 -30.88,36.69 -41.08,59.65 -8.81,19.83 -15.04,38.55 -17.11,45.14 2.03,6.67 8.24,25.72 17.11,45.89 1.27,-2.48 2.57,-5.01 3.87,-7.59 -5.84,-12.86 -11.04,-26.24 -15.17,-38.2 5.47,-15.56 12.86,-33.67 21.21,-49.74 9.53,-18.34 20.61,-34.45 31.18,-40.04 20.07,-10.62 42.48,-9.7 62.56,3.53 24.37,16.05 42.55,48.16 42.52,89 0,40.84 -18.17,72.36 -42.55,87.54 -20.11,12.52 -42.55,12.62 -62.63,1.3 -8.27,-4.67 -17.04,-16.15 -25.11,-30.06 -1.63,2.51 -3.23,4.96 -4.8,7.35 8.6,15.87 18.87,30.59 29.91,37.82 23.74,15.56 51.84,18.36 78.1,5.49 33.36,-16.35 58.82,-55.66 58.82,-108.88 0,-53.22 -25.43,-93.51 -58.79,-111.04 -26.23,-13.78 -54.29,-11.9 -78.03,2.84zm0 -30.28c-16.64,13.37 -30.55,36.6 -40.85,58.6 -8.88,18.98 -15.67,38.24 -20.04,51.85 -2.67,-7.4 -5.97,-15.54 -9.5,-22.55 -0.73,2.59 -1.47,5.14 -2.2,7.63 4.94,10.66 9.34,23.51 11.7,31.08 2.9,-9.22 9.25,-28.7 18.14,-48.82 10.41,-23.56 25.31,-50.21 42.75,-62.62 27.48,-19.55 61.76,-24.95 94.9,-11.76 45.59,18.13 81.8,66.94 81.8,135.79 0,68.84 -36.22,116.3 -81.87,132.9 -33.13,12.04 -67.46,5.42 -94.94,-15.09 -13.21,-9.84 -24.84,-27.7 -34.15,-45.97 -1.47,2.21 -2.87,4.34 -4.17,6.49 9.94,20.66 22.94,41.74 38.28,54.59 31.75,26.57 73.16,39.48 115.85,29.22 60.32,-14.5 112.45,-72.23 112.45,-161.23 0,-89.13 -52.11,-148.7 -112.41,-165.28 -42.6,-11.71 -84,-0.29 -115.75,25.19zm-44.85 188.09c-7.74,-18.52 -13.31,-35.84 -16.01,-44.47 -2.67,8.32 -7.85,23.17 -13.47,34.17 -5.01,9.8 -10.3,16.29 -14.81,12.93 -4.7,-3.54 -8.53,-11.98 -11.04,-22.34 -2.33,-9.62 -3.7,-21.48 -3.7,-33.97 0,-12.47 1.39,-24.28 3.73,-33.82 2.52,-10.27 6.34,-18.58 11.07,-21.95 3.43,-2.41 7.24,0.8 11.07,6.82 0.63,-2.4 1.27,-4.84 1.97,-7.35 -4.5,-6.49 -8.97,-9.72 -13.04,-6.49 -5.27,4.24 -9.48,13.84 -12.24,25.39 -2.54,10.64 -4,23.69 -4,37.38 0,13.73 1.44,26.82 3.97,37.56 2.74,11.63 6.97,21.33 12.24,25.76 4.27,3.57 9.03,-0.01 13.77,-7.12 5.29,-7.93 10.47,-20.11 14.44,-30.81 3.1,9.65 7.34,22 12.54,35.03 1.17,-2.18 2.33,-4.42 3.5,-6.73z"/>
</g>
</svg>
