<?xml version="1.0" encoding="utf-8"?>
<!-- Generator: Adobe Illustrator 25.2.0, SVG Export Plug-In . SVG Version: 6.00 Build 0)  -->
<svg version="1.1" id="Capa_1" xmlns="http://www.w3.org/2000/svg" xmlns:xlink="http://www.w3.org/1999/xlink" x="0px" y="0px"
	 viewBox="0 0 70 69" style="enable-background:new 0 0 70 69;" xml:space="preserve">
<style type="text/css">
	.st0{fill:#FFFFFF;}
	.st1{fill:#4D4D4D;}
</style>
<path class="st0" d="M68.37,69H1.63C0.73,69,0,68.27,0,67.37V1.63C0,0.73,0.73,0,1.63,0h66.74C69.27,0,70,0.73,70,1.63v65.74
	C70,68.27,69.27,69,68.37,69z"/>
<path class="st1" d="M26.38,38.91l16.05,3.41l0.67-3.24l-16.05-3.43L26.38,38.91z M26.02,43.15h16.4v3.3h-16.4V43.15z M28.48,31.13
	l14.86,7.02l1.38-3.02L29.85,28.1L28.48,31.13z M43.34,38.16L43.34,38.16L43.34,38.16L43.34,38.16z M19.48,39.82v13.3h29.48v-13.3
	h-3.28v9.98H22.76v-9.98H19.48z M32.6,23.73L45.19,34.4l2.09-2.56L34.69,21.17L32.6,23.73z M50.52,29.2l-9.78-13.33l-2.62,2
	L47.9,31.2L50.52,29.2z"/>
</svg>
