<?xml version="1.0" encoding="utf-8"?>
<!-- Generator: Adobe Illustrator 25.2.0, SVG Export Plug-In . SVG Version: 6.00 Build 0)  -->
<svg version="1.1" id="Capa_1" xmlns="http://www.w3.org/2000/svg" xmlns:xlink="http://www.w3.org/1999/xlink" x="0px" y="0px"
	 viewBox="0 0 31.04 37.25" style="enable-background:new 0 0 31.04 37.25;" xml:space="preserve">
<style type="text/css">
	.st0{fill:#FFFFFF;}
</style>
<path class="st0" d="M6.9,23.03l16.05,3.41l0.67-3.24L7.57,19.76L6.9,23.03z M6.54,27.27h16.4v3.3H6.54V27.27z M9,15.26l14.86,7.02
	l1.38-3.02l-14.86-7.04L9,15.26z M23.86,22.29L23.86,22.29L23.86,22.29L23.86,22.29z M0,23.95v13.3h29.48v-13.3H26.2v9.98H3.28
	v-9.98L0,23.95z M13.12,7.86l12.59,10.67l2.09-2.56L15.21,5.3L13.12,7.86z M31.04,13.33L21.26,0l-2.62,2l9.78,13.33L31.04,13.33z"/>
</svg>
